<svg xmlns="http://www.w3.org/2000/svg" width="888" height="544.357" data-name="Layer 1"><path fill="#f2f2f2" d="m535.817 481.954-32.031 8.592 32.262-19.84c-.694-31.628-11.733-64.424-11.733-64.424s-68.95 19.975-87.046 54.565-3.851 57.424 21.514 70.695c25.366 13.27 52.247 11.95 70.343-22.639 4.028-7.699 6.02-17.056 6.69-26.95Z"/><path fill="#fff" d="m497.662 488.715-.892 1.705c-10.47 19.765-21.901 33.48-34.156 40.936-.177.112-.357.211-.534.323l-.5-.832-.471-.805c13.426-7.951 24.695-23.224 33.832-40.461a63.3 63.3 0 0 0 .891-1.684c3.803-7.33 7.229-14.967 10.273-22.534.241-.583.478-1.18.715-1.776 3.967-10.008 7.275-19.824 9.926-28.467.19-.61.372-1.225.55-1.83 4.427-14.649 6.883-25.652 7.41-28.096.068-.297.101-.463.11-.501l.922.192.012-.004.93.196c-.01.038-.117.594-.35 1.612-.845 3.815-3.245 14.116-7.203 27.29-.18.593-.363 1.208-.553 1.818-2.144 7.016-4.706 14.77-7.7 22.751q-1.122 3.01-2.28 5.902c-.229.601-.466 1.198-.706 1.781q-4.936 12.27-10.226 22.484Z"/><path fill="#fff" d="M519.128 433.98a59.964 59.964 0 0 1-1.833-.69 52.552 52.552 0 0 1-4.888-2.246 51.119 51.119 0 0 1-17.268-14.668c-.589.262-1.177.524-1.779.79a53.011 53.011 0 0 0 18.164 15.566 54.372 54.372 0 0 0 5.222 2.388c.605.241 1.219.465 1.828.677a52.565 52.565 0 0 0 15.596 2.966q-.18-.98-.349-1.923a50.943 50.943 0 0 1-14.693-2.86ZM508.594 464.45q-.9-.406-1.774-.863c-.182-.084-.367-.181-.545-.274a51.39 51.39 0 0 1-27.16-39.076c-.598.321-1.197.643-1.79.977a53.298 53.298 0 0 0 28.067 39.787c.236.124.473.247.714.362.595.301 1.186.589 1.782.868a53.016 53.016 0 0 0 29.618 4.315c-.01-.64-.02-1.279-.037-1.922a51.037 51.037 0 0 1-28.875-4.174Z"/><path fill="#fff" d="M497.662 488.715a53.686 53.686 0 0 1-3.751-1.769 51.529 51.529 0 0 1-26.586-55.75c-.737.485-1.47.961-2.191 1.455a53.416 53.416 0 0 0 27.894 55.983c.633.331 1.27.654 1.913.947.608.297 1.216.572 1.83.839a53.26 53.26 0 0 0 39.097 1.093c.15-.718.27-1.44.394-2.17a51.362 51.362 0 0 1-38.6-.628Z"/><path fill="#f2f2f2" d="m115.183 484.954 32.031 8.592-32.262-19.84c.694-31.628 11.733-64.424 11.733-64.424s68.95 19.975 87.046 54.565 3.851 57.424-21.514 70.695c-25.366 13.27-52.247 11.95-70.343-22.639-4.028-7.699-6.02-17.056-6.69-26.95Z"/><path fill="#fff" d="m153.338 491.715.892 1.705c10.47 19.765 21.901 33.48 34.156 40.936.177.112.357.211.534.323l.5-.832.471-.805c-13.426-7.951-24.695-23.224-33.832-40.461a63.3 63.3 0 0 1-.891-1.684c-3.803-7.33-7.229-14.967-10.273-22.534-.241-.583-.478-1.18-.715-1.776-3.967-10.008-7.275-19.824-9.926-28.467-.19-.61-.372-1.225-.55-1.83-4.427-14.649-6.883-25.652-7.41-28.096-.068-.297-.101-.463-.11-.501l-.922.192-.012-.004-.93.196c.01.038.117.594.35 1.612.845 3.815 3.245 14.116 7.203 27.29.18.593.363 1.208.553 1.818 2.144 7.016 4.706 14.77 7.7 22.751q1.122 3.01 2.28 5.902c.229.601.466 1.198.706 1.781q4.936 12.27 10.226 22.484Z"/><path fill="#fff" d="M117.179 439.84q-.169.942-.349 1.923a52.565 52.565 0 0 0 15.596-2.966c.61-.212 1.223-.436 1.828-.677a54.372 54.372 0 0 0 5.222-2.388 53.011 53.011 0 0 0 18.164-15.566c-.602-.266-1.19-.528-1.779-.79a51.119 51.119 0 0 1-17.268 14.668 52.552 52.552 0 0 1-4.888 2.245c-.614.246-1.227.47-1.833.69a50.943 50.943 0 0 1-14.693 2.86ZM113.531 471.624c-.018.643-.027 1.283-.037 1.922a53.016 53.016 0 0 0 29.618-4.315 67.93 67.93 0 0 0 1.782-.868c.241-.115.478-.238.714-.362a53.298 53.298 0 0 0 28.068-39.787c-.594-.334-1.193-.656-1.79-.977a51.39 51.39 0 0 1-27.161 39.076c-.178.093-.363.19-.545.274q-.873.457-1.774.863a51.037 51.037 0 0 1-28.875 4.174Z"/><path fill="#fff" d="M114.738 492.343c.125.73.244 1.452.394 2.17a53.26 53.26 0 0 0 39.098-1.093 46.457 46.457 0 0 0 1.83-.839c.642-.293 1.279-.616 1.912-.947a53.416 53.416 0 0 0 27.894-55.983c-.72-.494-1.454-.97-2.191-1.455a51.529 51.529 0 0 1-26.586 55.75 53.661 53.661 0 0 1-3.751 1.769 51.362 51.362 0 0 1-38.6.628Z"/><path fill="#f2f2f2" d="m265.356 509.174 19.069 5.115-19.207-11.81c.413-18.83 6.985-38.354 6.985-38.354s41.048 11.891 51.82 32.483 2.294 34.187-12.807 42.087c-15.1 7.9-31.104 7.114-41.877-13.477-2.398-4.584-3.584-10.154-3.983-16.044Z"/><path fill="#fff" d="m288.07 513.199.531 1.015c6.233 11.767 13.039 19.931 20.334 24.37.106.067.213.126.319.193l.297-.495.28-.48c-7.993-4.733-14.701-13.825-20.14-24.087-.179-.33-.36-.663-.531-1.003-2.264-4.364-4.303-8.91-6.116-13.415a85.207 85.207 0 0 1-.425-1.057c-2.362-5.958-4.331-11.802-5.91-16.947a64.823 64.823 0 0 1-.327-1.09c-2.635-8.72-4.098-15.271-4.41-16.726-.042-.177-.062-.276-.067-.298l-.549.114-.007-.003-.554.117c.006.023.07.354.208.96.504 2.271 1.933 8.404 4.289 16.246.108.354.216.72.329 1.083a231.188 231.188 0 0 0 4.584 13.544q.668 1.791 1.358 3.514c.136.357.277.712.42 1.06q2.938 7.304 6.087 13.385Z"/><path fill="#fff" d="M266.544 482.316q-.1.561-.207 1.146a31.294 31.294 0 0 0 9.284-1.766c.363-.126.728-.26 1.088-.404a32.37 32.37 0 0 0 3.11-1.421 31.56 31.56 0 0 0 10.812-9.267l-1.058-.47a30.432 30.432 0 0 1-10.28 8.732 31.287 31.287 0 0 1-2.91 1.337c-.366.146-.731.28-1.091.41a30.327 30.327 0 0 1-8.748 1.703ZM264.373 501.238c-.011.383-.017.764-.022 1.145a31.562 31.562 0 0 0 17.632-2.57c.355-.165.707-.337 1.06-.516.144-.068.285-.142.426-.216a31.73 31.73 0 0 0 16.71-23.686c-.355-.199-.71-.39-1.067-.581a30.594 30.594 0 0 1-16.17 23.262 7.783 7.783 0 0 1-.323.164q-.52.272-1.056.514a30.383 30.383 0 0 1-17.19 2.484Z"/><path fill="#fff" d="M265.091 513.573c.074.435.145.865.234 1.292a31.707 31.707 0 0 0 23.276-.651c.365-.159.728-.323 1.09-.5.382-.174.761-.366 1.138-.563a31.8 31.8 0 0 0 16.606-33.328c-.429-.294-.865-.578-1.304-.867a30.676 30.676 0 0 1-15.827 33.19 31.955 31.955 0 0 1-2.234 1.053 30.577 30.577 0 0 1-22.979.374ZM646.236 336.057l-.081-.007c-15.167-2.504-32.016-2.503-51.508.003h-.008a3.686 3.686 0 0 1-3.73-3.67V314.73a3.678 3.678 0 0 1 3.674-3.673 199.874 199.874 0 0 1 51.715.004h.006a3.66 3.66 0 0 1 3.605 3.67v17.652a3.678 3.678 0 0 1-3.673 3.674Z"/><path fill="#d64045" d="m646.236 336.057-.081-.007c-15.167-2.504-32.016-2.503-51.508.003h-.008a3.686 3.686 0 0 1-3.73-3.67V314.73a3.678 3.678 0 0 1 3.674-3.673 199.874 199.874 0 0 1 51.715.004h.006a3.66 3.66 0 0 1 3.605 3.67v17.652a3.678 3.678 0 0 1-3.673 3.674Zm-26.482-25.676a184.5 184.5 0 0 0-25.103 1.67 2.699 2.699 0 0 0-2.742 2.68v17.652a2.676 2.676 0 0 0 2.674 2.674c19.51-2.513 36.44-2.513 51.692 0a2.676 2.676 0 0 0 2.634-2.674V314.73a2.676 2.676 0 0 0-2.673-2.673 215.528 215.528 0 0 0-26.482-1.676Z"/><circle cx="620.409" cy="322.714" r="7" fill="#d64045"/><path fill="#d64045" d="M602.41 319.057h-6a1.502 1.502 0 0 1-1.5-1.5v-2a1.502 1.502 0 0 1 1.5-1.5h6a1.502 1.502 0 0 1 1.5 1.5v2a1.502 1.502 0 0 1-1.5 1.5ZM644.41 333.057h-6a1.502 1.502 0 0 1-1.5-1.5v-2a1.502 1.502 0 0 1 1.5-1.5h6a1.502 1.502 0 0 1 1.5 1.5v2a1.502 1.502 0 0 1-1.5 1.5Z"/><path fill="#fff" d="m637.7 328.755-.073-.038c-13-8.205-28.522-14.756-47.455-20.028l-.007-.003a3.686 3.686 0 0 1-2.009-4.83l6.865-16.264a3.678 3.678 0 0 1 4.813-1.956 199.874 199.874 0 0 1 47.643 20.115l.006.003a3.66 3.66 0 0 1 1.894 4.782l-6.865 16.264a3.678 3.678 0 0 1-4.813 1.955Z"/><path fill="#d64045" d="m637.7 328.755-.073-.038c-13-8.205-28.522-14.756-47.455-20.028l-.007-.003a3.686 3.686 0 0 1-2.009-4.83l6.865-16.264a3.678 3.678 0 0 1 4.813-1.956 199.874 199.874 0 0 1 47.643 20.115l.006.003a3.66 3.66 0 0 1 1.894 4.782l-6.865 16.264a3.678 3.678 0 0 1-4.813 1.955Zm-14.414-33.953a184.498 184.498 0 0 0-23.776-8.223 2.699 2.699 0 0 0-3.567 1.401l-6.866 16.264a2.676 2.676 0 0 0 1.424 3.503c18.95 5.272 34.548 11.855 47.623 20.102a2.676 2.676 0 0 0 3.467-1.438l6.865-16.264a2.676 2.676 0 0 0-1.424-3.502 215.53 215.53 0 0 0-23.746-11.842Z"/><circle cx="619.094" cy="306.419" r="7" fill="#d64045"/><path fill="#d64045" d="m603.933 296.05-5.527-2.333a1.502 1.502 0 0 1-.799-1.966l.778-1.842a1.502 1.502 0 0 1 1.965-.799l5.528 2.334a1.502 1.502 0 0 1 .798 1.965l-.777 1.842a1.502 1.502 0 0 1-1.966.799ZM637.183 325.281l-5.528-2.333a1.502 1.502 0 0 1-.798-1.965l.777-1.843a1.502 1.502 0 0 1 1.966-.799l5.527 2.334a1.502 1.502 0 0 1 .799 1.965l-.778 1.843a1.502 1.502 0 0 1-1.965.798Z"/><path fill="#ffb6b6" d="M651.475 319.091a10.056 10.056 0 0 0 2.385-15.234l17.709-31.038-18.531 1.197-13.976 29.291a10.11 10.11 0 0 0 12.413 15.784ZM787.796 530.684h-12.26l-5.832-47.288 18.094.001-.002 47.287z"/><path fill="#2f2e41" d="m790.922 542.568-39.53-.001v-.5a15.387 15.387 0 0 1 15.386-15.386h24.145Z"/><path fill="#ffb6b6" d="M703.796 530.684h-12.26l-5.832-47.288 18.094.001-.002 47.287z"/><path fill="#2f2e41" d="m706.922 542.568-39.53-.001v-.5a15.387 15.387 0 0 1 15.386-15.386h24.145ZM672.27 274.153s-3.371 48.021 3.27 72.206 7.828 170.44 7.828 170.44h22.261l19.295-199.085 44.482 199.788 21.205-1.458-11.629-235.423Z"/><path fill="#e4e4e4" d="m769.783 112.275-17.019-12.419-28.517 6.21-7.72 18.342-13.301 6.595a30.152 30.152 0 0 0-16.447 22.692L667.776 284.92l111.206-4.299 13.463-154.543a12.116 12.116 0 0 0-11.367-13.146Z"/><path fill="#e4e4e4" d="m696.189 141.253-10.271 13.846-44.736 136.445 20.97 8.396 33.577-63.581.46-95.106z"/><circle cx="732.961" cy="57.795" r="34.037" fill="#2f2e41"/><circle cx="733.421" cy="68.534" r="24.838" fill="#ffb9b9"/><path fill="#2f2e41" d="M752.28 65.315c-15.816-5.705-21.168-9.21-38.638 0l-6.44-25.758h51.516Z"/><circle cx="730.201" cy="23.918" r="19.318" fill="#2f2e41"/><path fill="#2f2e41" d="M707.203 19.318A19.302 19.302 0 0 1 725.6.046c-.307-.014-.61-.046-.92-.046a19.318 19.318 0 1 0 0 38.637c.31 0 .613-.032.92-.047a19.302 19.302 0 0 1-18.398-19.272Z"/><path d="m778.087 149.111-6.93 69.085-24.474 48.235 31.404-117.32z" opacity=".1"/><path fill="#f0f0f0" d="M39.5 361.737h6v5h-6zM613.03 366.737h-11.824v-5h11.823Zm-23.647 0h-11.824v-5h11.824Zm-23.648 0h-11.823v-5h11.823Zm-23.646 0h-11.824v-5h11.824Zm-23.648 0h-11.823v-5h11.823Zm-23.647 0H482.97v-5h11.823Zm-23.647 0h-11.823v-5h11.823Zm-23.647 0h-11.823v-5H447.5Zm-23.647 0H412.03v-5h11.823Zm-23.647 0h-11.824v-5h11.824Zm-23.647 0h-11.824v-5h11.824Zm-23.647 0h-11.824v-5h11.824Zm-23.647 0h-11.824v-5h11.824Zm-23.647 0h-11.824v-5h11.824Zm-23.647 0h-11.824v-5h11.824Zm-23.647 0H246.5v-5h11.824Zm-23.647 0h-11.824v-5h11.824Zm-23.647 0h-11.824v-5h11.824Zm-23.648 0H175.56v-5h11.823Zm-23.647 0h-11.823v-5h11.823Zm-23.647 0h-11.823v-5h11.823Zm-23.647 0h-11.823v-5h11.823Zm-23.647 0H80.971v-5h11.823Zm-23.647 0H57.324v-5h11.823ZM39.5 234.737h6v5h-6zM613.03 239.737h-11.824v-5h11.823Zm-23.647 0h-11.824v-5h11.824Zm-23.648 0h-11.823v-5h11.823Zm-23.646 0h-11.824v-5h11.824Zm-23.648 0h-11.823v-5h11.823Zm-23.647 0H482.97v-5h11.823Zm-23.647 0h-11.823v-5h11.823Zm-23.647 0h-11.823v-5H447.5Zm-23.647 0H412.03v-5h11.823Zm-23.647 0h-11.824v-5h11.824Zm-23.647 0h-11.824v-5h11.824Zm-23.647 0h-11.824v-5h11.824Zm-23.647 0h-11.824v-5h11.824Zm-23.647 0h-11.824v-5h11.824Zm-23.647 0h-11.824v-5h11.824Zm-23.647 0H246.5v-5h11.824Zm-23.647 0h-11.824v-5h11.824Zm-23.647 0h-11.824v-5h11.824Zm-23.648 0H175.56v-5h11.823Zm-23.647 0h-11.823v-5h11.823Zm-23.647 0h-11.823v-5h11.823Zm-23.647 0h-11.823v-5h11.823Zm-23.647 0H80.971v-5h11.823Zm-23.647 0H57.324v-5h11.823ZM39.5 107.737h6v5h-6zM613.03 112.737h-11.824v-5h11.823Zm-23.647 0h-11.824v-5h11.824Zm-23.648 0h-11.823v-5h11.823Zm-23.646 0h-11.824v-5h11.824Zm-23.648 0h-11.823v-5h11.823Zm-23.647 0H482.97v-5h11.823Zm-23.647 0h-11.823v-5h11.823Zm-23.647 0h-11.823v-5H447.5Zm-23.647 0H412.03v-5h11.823Zm-23.647 0h-11.824v-5h11.824Zm-23.647 0h-11.824v-5h11.824Zm-23.647 0h-11.824v-5h11.824Zm-23.647 0h-11.824v-5h11.824Zm-23.647 0h-11.824v-5h11.824Zm-23.647 0h-11.824v-5h11.824Zm-23.647 0H246.5v-5h11.824Zm-23.647 0h-11.824v-5h11.824Zm-23.647 0h-11.824v-5h11.824Zm-23.648 0H175.56v-5h11.823Zm-23.647 0h-11.823v-5h11.823Zm-23.647 0h-11.823v-5h11.823Zm-23.647 0h-11.823v-5h11.823Zm-23.647 0H80.971v-5h11.823Zm-23.647 0H57.324v-5h11.823Z"/><path fill="#3f3d56" d="M186 363.237h49v180h-49z"/><path fill="#d64045" d="M195 363.237h49v180h-49z"/><path fill="#3f3d56" d="M302 236.237h49v307h-49z"/><path fill="#d64045" d="M311 236.237h49v307h-49z"/><path fill="#3f3d56" d="M418 109.237h49v434h-49z"/><path fill="#d64045" d="M427 109.237h49v434h-49z"/><circle cx="40" cy="110.237" r="12" fill="#f0f0f0"/><circle cx="40" cy="237.237" r="12" fill="#f0f0f0"/><circle cx="40" cy="364.237" r="12" fill="#f0f0f0"/><path fill="#3f3d56" d="M0 542.116h888v2.241H0z"/><path fill="#fff" d="m749.236 314.057-.081-.007c-15.167-2.504-32.016-2.503-51.508.003h-.008a3.686 3.686 0 0 1-3.73-3.67V292.73a3.678 3.678 0 0 1 3.674-3.673 199.874 199.874 0 0 1 51.715.004h.006a3.66 3.66 0 0 1 3.605 3.67v17.652a3.678 3.678 0 0 1-3.673 3.674Z"/><path fill="#d64045" d="m749.236 314.057-.081-.007c-15.167-2.504-32.016-2.503-51.508.003h-.008a3.686 3.686 0 0 1-3.73-3.67V292.73a3.678 3.678 0 0 1 3.674-3.673 199.874 199.874 0 0 1 51.715.004h.006a3.66 3.66 0 0 1 3.605 3.67v17.652a3.678 3.678 0 0 1-3.673 3.674Zm-26.482-25.676a184.5 184.5 0 0 0-25.103 1.67 2.699 2.699 0 0 0-2.742 2.68v17.652a2.676 2.676 0 0 0 2.674 2.674c19.51-2.513 36.44-2.513 51.692 0a2.676 2.676 0 0 0 2.634-2.674V292.73a2.676 2.676 0 0 0-2.673-2.673 215.528 215.528 0 0 0-26.482-1.676Z"/><circle cx="723.409" cy="300.714" r="7" fill="#d64045"/><path fill="#d64045" d="M705.41 297.057h-6a1.502 1.502 0 0 1-1.5-1.5v-2a1.502 1.502 0 0 1 1.5-1.5h6a1.502 1.502 0 0 1 1.5 1.5v2a1.502 1.502 0 0 1-1.5 1.5ZM747.41 311.057h-6a1.502 1.502 0 0 1-1.5-1.5v-2a1.502 1.502 0 0 1 1.5-1.5h6a1.502 1.502 0 0 1 1.5 1.5v2a1.502 1.502 0 0 1-1.5 1.5Z"/><path fill="#ffb6b6" d="M737.994 290.916a10.056 10.056 0 0 1 11.1-10.702l15.238-32.323 9.663 15.857-15.952 28.264a10.11 10.11 0 0 1-20.05-1.096Z"/><path fill="#e4e4e4" d="m779.422 121.84 6.275-8.185s15.29-3.114 17.888 17.887l-1.636 93.366-33.505 52.736-21.761-5.556 28.45-62.647Z"/></svg>