<svg xmlns="http://www.w3.org/2000/svg" width="524.67" height="400.491"><path fill="#d64045" d="M252.766 148.861c2.87-3.161 7.609-2.237 10.762-.006 4.059 2.871 5.22 8.115 5.818 12.764 1.014 7.869 1.314 18.993 10.237 22.282 4.123 1.52 8.842.265 12.325-2.203 3.803-2.696 6.176-6.842 7.765-11.14 1.924-5.204 3.038-10.77 3.982-16.223a140.17 140.17 0 0 0 1.882-16.865c.278-5.53.097-11.024-.123-16.55-.171-4.315-.237-8.845 1.22-12.971 1.473-4.167 4.895-7.337 9.395-7.755 4.368-.406 8.867 1.436 12.027 4.41 7.583 7.132 7.94 18.777 9.635 28.34.89 5.026 2.192 10.11 4.92 14.482 2.245 3.596 5.363 6.61 8.956 8.846 7.245 4.511 16.478 5.827 24.518 2.728 7.85-3.025 14.168-9.639 16.902-17.589.676-1.963 1.093-3.991 1.304-6.054.099-.96-1.402-.953-1.5 0-.899 8.769-6.528 16.711-14.242 20.87-7.937 4.28-17.549 3.737-25.304-.7-3.812-2.181-7.129-5.258-9.433-9.01-2.795-4.55-3.991-9.853-4.862-15.06-1.572-9.406-2.285-20.204-9.334-27.425-5.467-5.6-15.526-7.848-21.401-1.61-6.05 6.423-4.236 16.77-4.043 24.744a137.687 137.687 0 0 1-3.59 34.755c-1.162 4.95-2.498 10.055-5.414 14.3-2.664 3.879-7.02 6.886-11.869 6.838-4.836-.048-8.234-3.602-9.95-7.84-1.812-4.47-1.93-9.299-2.557-14.018-.576-4.332-1.624-9.126-4.873-12.297-2.526-2.465-6.274-4.052-9.83-3.485a7.457 7.457 0 0 0-4.384 2.381c-.648.714.41 1.778 1.06 1.061Z"/><g fill="#f2f2f2"><path d="M469.54 309.225c-.844-1.423-4.497.101-5.168-1.191-.67-1.287 2.724-3.249 4.663-7.73.35-.808 2.553-5.9.922-7.471-3.092-2.979-17.24 9.312-22.19 5.29-1.088-.883-1.847-2.645-5.135-5.506-1.308-1.138-2.1-1.652-2.865-1.46-1.087.27-1.173 1.725-2.338 4.583-1.747 4.288-2.78 4.029-3.798 7.45-.755 2.538-.583 4.015-1.472 4.302-1.258.407-2.416-2.286-4.01-2.045-1.628.246-2.612 3.382-2.923 5.73-.583 4.406 1.035 7.314 1.932 10.37.975 3.323 1.553 8.376-.697 15.528l-22.278 62.767c4.919-12.88 19.159-48.186 25.143-61.306 1.727-3.787 3.634-7.629 7.55-9.145 3.771-1.46 8.95-.588 15.55-2.179.772-.185 2.911-.73 3.18-1.988.223-1.04-1.035-1.621-.842-2.596.26-1.307 2.734-1.323 5.776-2.83 2.144-1.064 3.48-2.328 4.629-3.416.346-.328 5.495-5.262 4.371-7.157Z"/><path d="M381.895 342.268c-.943.004-1.248 2.236-2.076 2.193-.825-.043-.809-2.275-2.448-4.52-.296-.404-2.16-2.955-3.402-2.607-2.353.658-.403 11.148-3.806 12.417-.746.279-1.83.143-4.183.932-.937.313-1.417.553-1.544.984-.18.612.508 1.074 1.575 2.47 1.6 2.095 1.175 2.527 2.56 4.014 1.029 1.103 1.803 1.444 1.688 1.964-.164.735-1.82.526-2.161 1.378-.35.87.906 2.258 1.969 3.088 1.994 1.557 3.888 1.602 5.647 2.044 1.912.48 4.559 1.654 7.42 4.822l24.378 29.044c-4.902-6.13-18.121-23.306-22.834-30.028-1.36-1.941-2.696-3.986-2.31-6.345.371-2.272 2.293-4.562 3.417-8.26.132-.433.482-1.64-.058-2.135-.447-.41-1.095.04-1.517-.336-.567-.504.14-1.723.277-3.651.097-1.36-.139-2.38-.34-3.258-.062-.264-.998-4.215-2.252-4.21ZM400.694 346.488l-.567-5.068.26-.384c1.2-1.777 1.811-3.512 1.819-5.159 0-.262-.011-.524-.024-.79-.049-1.058-.11-2.372.575-3.904.385-.854 1.464-2.831 3.086-2.586.437.06.768.261 1.018.496l.115-.18c.506-.772.906-1.102 1.291-1.42.296-.245.602-.497 1.082-1.094.21-.262.374-.492.513-.685.42-.585.968-1.283 1.934-1.27 1.033.049 1.574.903 1.932 1.468.64 1.008.93 1.735 1.122 2.217.07.176.15.375.19.436.333.49 3.038.032 4.057-.135 2.29-.382 4.27-.712 5.087.732.585 1.033.15 2.398-1.33 4.167-.461.551-.952.97-1.388 1.297.361.216.684.546.815 1.065.309 1.229-.747 2.46-3.137 3.664-.593.3-1.393.702-2.512.895a9.867 9.867 0 0 1-1.408.125c-.009.235-.064.49-.207.751-.42.771-1.294 1.138-2.61 1.05-1.449-.076-2.642-.352-3.694-.595-.92-.21-1.71-.389-2.332-.347-1.153.093-2.041 1.016-3.084 2.212l-2.603 3.042ZM403.328 316.312l-4.758 1.835-.438-.154c-2.023-.71-3.856-.862-5.451-.451-.254.065-.504.143-.759.223-1.01.315-2.266.708-3.921.434-.924-.155-3.11-.698-3.285-2.33a1.838 1.838 0 0 1 .222-1.11l-.204-.065c-.874-.294-1.295-.597-1.7-.889-.313-.224-.634-.456-1.333-.769-.307-.137-.571-.237-.793-.322-.672-.257-1.486-.61-1.72-1.549-.214-1.011.475-1.751.93-2.241a12.216 12.216 0 0 1 1.861-1.648c.153-.112.324-.24.373-.294.39-.446-.74-2.947-1.16-3.89-.95-2.118-1.771-3.95-.582-5.106.851-.828 2.282-.754 4.37.23.649.306 1.178.674 1.606 1.012.117-.403.354-.8.823-1.058 1.11-.61 2.568.1 4.34 2.106.44.497 1.032 1.168 1.503 2.202.221.487.363.941.478 1.33.23-.05.49-.062.779.01.852.21 1.429.963 1.677 2.259.295 1.42.33 2.644.362 3.724.03.942.058 1.753.256 2.344.382 1.091 1.5 1.716 2.922 2.421l3.602 1.746ZM400.694 301.381l-.567-5.068.26-.384c1.2-1.777 1.811-3.512 1.819-5.159 0-.262-.011-.524-.024-.79-.049-1.058-.11-2.372.575-3.904.385-.854 1.464-2.831 3.086-2.586.437.06.768.261 1.018.496l.115-.18c.506-.772.906-1.102 1.291-1.42.296-.245.602-.497 1.082-1.094.21-.262.374-.492.513-.685.42-.585.968-1.283 1.934-1.27 1.033.049 1.574.903 1.932 1.468.64 1.008.93 1.735 1.122 2.217.07.176.15.375.19.436.333.49 3.038.032 4.057-.135 2.29-.382 4.27-.712 5.087.732.585 1.033.15 2.398-1.33 4.168-.461.55-.952.969-1.388 1.297.361.215.684.545.815 1.064.309 1.229-.747 2.46-3.137 3.664-.593.3-1.393.702-2.512.895a9.867 9.867 0 0 1-1.408.125c-.009.235-.064.49-.207.751-.42.771-1.294 1.138-2.61 1.05-1.449-.076-2.642-.352-3.694-.594-.92-.21-1.71-.39-2.332-.348-1.153.093-2.041 1.016-3.084 2.212l-2.603 3.042Z"/><path d="m405.88 399.759-1.062-.666-.257-1.226.257 1.226-1.238.142c-.02-.115-.087-.38-.189-.793-.554-2.266-2.244-9.162-3.653-20.023a204.149 204.149 0 0 1-1.656-23.17c-.115-7.806.255-13.716.55-18.466.225-3.583.496-6.995.763-10.318.71-8.878 1.379-17.265.881-26.55-.11-2.072-.341-6.387-2.862-10.978-1.462-2.662-3.476-5.026-5.987-7.023l1.561-1.963c2.772 2.207 5 4.826 6.624 7.782 2.794 5.09 3.046 9.791 3.167 12.05.507 9.449-.17 17.916-.887 26.88-.264 3.311-.536 6.708-.758 10.276-.294 4.706-.66 10.565-.546 18.271.113 7.701.663 15.4 1.633 22.886 1.393 10.724 3.058 17.517 3.605 19.75.291 1.191.353 1.44.054 1.913Z"/><path d="M386.831 285.895c-.103 0-.207-.002-.312-.01-2.134-.115-4.11-1.392-5.874-3.795-.828-1.13-1.251-2.42-2.095-4.992-.131-.397-.768-2.408-1.154-5.176-.253-1.809-.222-2.565.137-3.233.398-.744 1.041-1.263 1.766-1.613a1.416 1.416 0 0 1 .097-.739c.427-1.045 1.563-.908 2.177-.842.311.04.699.09 1.117.069.659-.032 1.012-.228 1.548-.521.513-.282 1.15-.632 2.096-.825 1.865-.39 3.428.14 3.943.313 2.71.903 4.046 3.01 5.593 5.45.308.49 1.367 2.271 2.065 4.713.504 1.762.433 2.545.282 3.128-.309 1.197-1.037 1.882-2.886 3.394-1.93 1.584-2.9 2.376-3.732 2.859-1.937 1.118-3.153 1.82-4.768 1.82Z"/></g><path fill="#e6e6e6" d="M333.81 87.335h-34.22c-.863 0-1.565-.702-1.565-1.564s.702-1.565 1.565-1.565h34.22a1.566 1.566 0 0 1 0 3.13ZM386.81 178.335h-34.22c-.863 0-1.565-.702-1.565-1.564s.702-1.565 1.565-1.565h34.22a1.566 1.566 0 0 1 0 3.13ZM414.81 240.335h-34.22c-.863 0-1.565-.702-1.565-1.564s.702-1.565 1.565-1.565h34.22a1.566 1.566 0 0 1 0 3.13ZM258.81 53.335h-34.22c-.863 0-1.565-.702-1.565-1.564s.702-1.565 1.565-1.565h34.22a1.566 1.566 0 0 1 0 3.13Z"/><path fill="#ccc" d="M0 398.594c0 .66.53 1.19 1.19 1.19h522.29c.66 0 1.19-.53 1.19-1.19 0-.66-.53-1.19-1.19-1.19H1.19c-.66 0-1.19.53-1.19 1.19Z"/><path fill="#e6e6e6" d="M397.248 222.18h-155.1a1 1 0 0 1-1-1v-148a1 1 0 1 1 2 0v60.388c0 47.834 38.777 86.612 86.612 86.612h67.488a1 1 0 1 1 0 2Z"/><path fill="#e6e6e6" d="M274.81 162.7h-34.22a1.566 1.566 0 0 1 0-3.13h34.22c.863 0 1.565.702 1.565 1.564s-.702 1.565-1.565 1.565Z"/><path fill="#ffb6b6" d="M240.88 167.152c5.427-1.793 8.901-6.046 7.76-9.5s-6.465-4.8-11.894-3.006a14.304 14.304 0 0 0-5.781 3.496l-22.9 7.884 3.93 10.667 22.157-8.905c2.261.328 4.568.11 6.728-.636ZM123.167 228.289c.185 5.712 3.283 10.247 6.918 10.129s6.432-4.845 6.246-10.56a14.304 14.304 0 0 0-1.719-6.533l-1.09-24.194-11.343.754 2.28 23.77a14.305 14.305 0 0 0-1.292 6.634ZM149.353 391.311l10.125-.001 2.594-39.31-12.721.26.002 39.051z"/><path fill="#2f2e41" d="M184.041 391.082c.315.53.482 2.244.482 2.862a3.436 3.436 0 0 1-3.437 3.436h-31.354a2.344 2.344 0 0 1-2.344-2.344v-1.306s-1.551-3.923 1.642-8.759c0 0 3.97 3.787 9.9-2.144l1.749-3.168 12.66 9.258 7.016.864c1.535.189 2.896-.03 3.686 1.3Z"/><path fill="#ffb6b6" d="m173.353 391.311 10.125-.001 2.594-39.31-12.721.26.002 39.051z"/><path fill="#2f2e41" d="M208.041 391.082c.315.53.482 2.244.482 2.862a3.436 3.436 0 0 1-3.437 3.436h-31.354a2.344 2.344 0 0 1-2.344-2.344v-1.306s-1.551-3.923 1.642-8.759c0 0 3.97 3.787 9.9-2.144l1.749-3.168 12.66 9.258 7.016.864c1.535.189 2.896-.03 3.686 1.3Z"/><circle cx="155.245" cy="83.622" r="14.893" fill="#ffb6b6"/><path fill="#2f2e41" d="m134.638 207.5 7 100 4 67 19-1-2-73 4-45 6 118h15.122l5.878-165-32.5-4.5-26.5 3.5zM160.638 95.5c-4.236 4.078-14.025 1.374-19 0-2.738-.756-4.39-1.536-5-3-.423-1.018-.183-1.983-1-4-.478-1.181-.73-1.27-1-2-.75-2.036.292-3.85 1-6 1.478-4.485-.286-4.989 1-8 1.934-4.527 7.196-6.369 9-7 3.368-1.179 6.177-1.054 7-1 5.276.347 8.803 3.054 10 4 2.428 1.917 3.619 3.945 6 8 2.073 3.529 2.224 4.883 2 6-.34 1.702-1.322 1.708-2 4-.77 2.602.106 3.91-1 5-.747.737-1.442.43-3 1-2.144.784-3.202 2.232-4 3Z"/><path fill="#2f2e41" d="M172.638 110.5s-15-19-34-12l-6.153 12-2.056 1.946a35.783 35.783 0 0 0-10.71 31.792l8.92 54.262s-1 21 6 27c0 0 10-19 34-10s29 4 29 4l-8-57-17-52Z"/><path fill="#2f2e41" d="m167.638 113.5-5 11 19 64 52-19-7-12-25 7s-19-56-34-51ZM132.138 214h-11l-2-80 13 27v53z"/><circle cx="252.638" cy="148.5" r="4.5" fill="#3f3d56"/><circle cx="282.638" cy="183.5" r="4.5" fill="#3f3d56"/><circle cx="316.638" cy="99.5" r="4.5" fill="#3f3d56"/><circle cx="366.638" cy="159.5" r="4.5" fill="#3f3d56"/><circle cx="395.638" cy="135.5" r="4.5" fill="#3f3d56"/><path fill="#3f3d56" d="m387.065 40.024 8.23 3.899c-3.375-4.711-6.284-12.069-7.841-17.923-2.637 5.453-6.887 12.126-11.094 16.112l8.698-2.238C379.698 66.142 359.54 85 336.454 85l-.327.949c24.113 0 45.466-18.597 50.938-45.925Z"/><path fill="#d64045" d="M362.186 0h52c2.206 0 4 1.794 4 4s-1.794 4-4 4h-52c-2.206 0-4-1.794-4-4s1.794-4 4-4Z"/><path fill="#e6e6e6" d="M397.316 230.364a3.828 3.828 0 0 1-1.628-.369 3.745 3.745 0 0 1-2.182-3.265l-.539-11.626a3.765 3.765 0 0 1 2.034-3.543 3.768 3.768 0 0 1 4.072.347l7.918 6.056a3.77 3.77 0 0 1 1.492 3.03 3.771 3.771 0 0 1-1.51 3.023l-7.38 5.57a3.768 3.768 0 0 1-2.277.777ZM251.345 74.15c0 .547-.122 1.1-.37 1.628a3.745 3.745 0 0 1-3.264 2.181l-11.626.54a3.765 3.765 0 0 1-3.544-2.035 3.768 3.768 0 0 1 .348-4.071l6.055-7.918a3.77 3.77 0 0 1 3.03-1.492c1.2.003 2.3.554 3.023 1.51l5.571 7.38c.514.68.777 1.473.777 2.276Z"/><path fill="#d64045" d="M316.269 63.853c-5.92-1.418-12.246-.135-17.306 3.208-5.307 3.506-8.82 9.12-10.01 15.338-2.453 12.83 5.043 25.647 16.89 30.754 12.454 5.368 27.27 1.766 36.315-8.197 4.482-4.938 7.284-11.186 8.128-17.792.83-6.509-.117-14.018-4.058-19.45-3.91-5.388-10.419-7.196-16.705-8.079-6.1-.857-14.192-1.229-17.49 5.227a7.711 7.711 0 0 0-.855 3.938c.049.961 1.549.967 1.5 0-.152-3.018 1.86-5.54 4.44-6.897 2.99-1.573 6.596-1.44 9.856-1.09 5.886.634 12.57 1.762 16.814 6.283 4.228 4.503 5.496 11.366 5.233 17.344-.274 6.24-2.423 12.38-6.19 17.371-7.434 9.847-20.44 14.532-32.405 11.351-11.659-3.1-11.811-10.018-11.619-22.27.103-6.537-6.071-16.826-1.03-21.086 4.936-4.17 11.776-6.02 18.093-4.507.938.225 1.339-1.221.399-1.446Z"/></svg>