<svg xmlns="http://www.w3.org/2000/svg" xml:space="preserve" width="800" height="800" viewBox="0 0 511.984 511.984"><path d="m136 313.88-43.424-73.504H34.464C15.472 240.376 0 224.888 0 205.848V72.216c0-19.04 15.472-34.544 34.464-34.544H237.52c19.008 0 34.48 15.488 34.48 34.544v133.632c0 19.04-15.472 34.528-34.464 34.528h-58.112L136 313.88zM34.464 69.672c-1.312 0-2.464 1.184-2.464 2.544v133.632c0 1.344 1.152 2.528 2.464 2.528h76.352L136 250.984l25.168-42.608h76.352c1.312 0 2.464-1.184 2.464-2.528V72.216c0-1.344-1.152-2.544-2.464-2.544H34.464z" style="fill:#007dfc"/><path d="m376 474.312-43.424-73.504h-58.112c-19.008 0-34.464-15.488-34.464-34.528V232.648c0-19.04 15.472-34.544 34.464-34.544H477.52c19.008 0 34.464 15.488 34.464 34.544V366.28c0 19.04-15.472 34.528-34.464 34.528h-58.112L376 474.312zM274.464 230.104c-1.312 0-2.464 1.184-2.464 2.544V366.28c0 1.344 1.152 2.528 2.464 2.528h76.352l25.168 42.592 25.168-42.592h76.352c1.312 0 2.464-1.184 2.464-2.528V232.648c0-1.344-1.152-2.544-2.464-2.544h-203.04z" style="fill:#d64045"/></svg>