<svg xmlns="http://www.w3.org/2000/svg" width="800" height="800" fill="#d64045" viewBox="0 0 32 32"><path d="M20 24.75h-8c-.69 0-1.25.56-1.25 1.25v2c0 .345.14.658.366.885l2 2c.226.226.538.365.883.365h4.003c.345 0 .657-.14.883-.365l2-2c.226-.226.365-.538.365-.883V26A1.252 1.252 0 0 0 20 24.75zm-1.25 2.732-1.268 1.268h-2.965l-1.268-1.268v-.232h5.5zm8.375-14.924a10.653 10.653 0 0 0-1.773-6.239l.025.04C23.458 3.107 20.049.912 16.114.715l-.027-.001h-.071a11.446 11.446 0 0 0-9.274 5.423l-.028.049a10.574 10.574 0 0 0-1.869 6.031v.037-.002a13.272 13.272 0 0 0 2.081 6.176l-.032-.052c.322.555.664 1.102 1.006 1.646.671.991 1.314 2.13 1.862 3.322l.062.151c.194.455.637.768 1.153.768h.001c.173 0 .338-.035.489-.099l-.008.003a1.254 1.254 0 0 0 .668-1.645l.003.008a26.414 26.414 0 0 0-2.173-3.929l.06.095c-.327-.523-.654-1.044-.962-1.575a10.358 10.358 0 0 1-1.71-4.901l-.003-.038A8.298 8.298 0 0 1 8.827 7.52l-.018.027c1.512-2.491 4.147-4.17 7.185-4.332l.022-.001h.052a9.012 9.012 0 0 1 7.162 4.423l.023.042a8.264 8.264 0 0 1 1.378 4.593c0 .053 0 .107-.002.16v-.008a11.187 11.187 0 0 1-1.807 4.922l.026-.041a57.72 57.72 0 0 1-.889 1.446 27.857 27.857 0 0 0-2.02 3.581l-.074.175a1.25 1.25 0 1 0 2.29 1.004l.003-.008a26.396 26.396 0 0 1 1.978-3.52l-.06.096c.313-.498.625-.998.924-1.502a13.313 13.313 0 0 0 2.12-5.961l.005-.058zM15.139 5.687a1.247 1.247 0 0 0-1.661-.621l.008-.003c-2.463 1.415-4.215 3.829-4.711 6.675l-.008.057a1.25 1.25 0 0 0 1.018 1.435l.007.001a1.252 1.252 0 0 0 1.439-1.013l.001-.008a7.19 7.19 0 0 1 3.252-4.852l.03-.017a1.25 1.25 0 0 0 .62-1.661l.003.008zM1.441 3.118l4 2a1.25 1.25 0 0 0 1.124-2.233l-.007-.003-4-2a1.25 1.25 0 0 0-1.124 2.233l.007.003zM26 5.25h.002c.203 0 .395-.049.564-.135l-.007.003 4-2A1.25 1.25 0 0 0 29.434.885l.007-.003-4 2A1.25 1.25 0 0 0 26 5.25zm4.559 15.633-4-2a1.249 1.249 0 0 0-1.125 2.231l.007.003 4 2a1.249 1.249 0 0 0 1.125-2.231l-.007-.003zM5.561 18.867l-3.913 1.83a1.25 1.25 0 1 0 1.066 2.262l-.008.003 3.913-1.83a1.25 1.25 0 1 0-1.066-2.262l.008-.003zM2 13.25h1a1.25 1.25 0 0 0 0-2.5H2a1.25 1.25 0 0 0 0 2.5zm28-2.5h-1a1.25 1.25 0 0 0 0 2.5h1a1.25 1.25 0 0 0 0-2.5z"/></svg>