<svg xmlns="http://www.w3.org/2000/svg" width="936.131" height="505.296" data-name="Layer 1"><path fill="#e4e4e4" d="m59.295 422.007-2.92 14.65c-.22 1.12-.45 2.26-.7 3.39a14.288 14.288 0 0 0-7.34.41 68.511 68.511 0 0 1 5.04 8.43c-1.84 5.67-4.54 10.91-9.06 14.7a22.72 22.72 0 0 1-21.95 3.86l.13-.58c-4.86-9.43-2.22-21.32 3.82-30.03a58.385 58.385 0 0 1 10.85-11.47c4.08-3.4 8.49-6.45 12.86-9.46a5.99 5.99 0 0 1 9.27 6.1Z"/><path fill="#f2f2f2" d="M23.405 502.697c-1.229-8.953-2.493-18.02-1.631-27.069.766-8.036 3.217-15.885 8.209-22.32a37.132 37.132 0 0 1 9.527-8.634c.953-.6 1.829.91.881 1.507a35.3 35.3 0 0 0-13.963 16.847c-3.04 7.732-3.528 16.161-3 24.374.317 4.967.988 9.9 1.665 14.83a.9.9 0 0 1-.61 1.074.878.878 0 0 1-1.074-.61Z" data-name="a4b268fa-75d0-4ac1-9d87-14bdca948464-2189"/><path fill="#e6e6e6" d="M33.952 53.634q64.256-1.117 128.526-.321 64.26.8 128.478 3.524 36.035 1.528 72.04 3.662c1.93.114 1.922-2.887 0-3q-64.153-3.797-128.4-5.682-64.238-1.88-128.513-1.837-36.067.024-72.13.654c-1.929.033-1.935 3.034 0 3ZM332.488 34.823l18.731-1.394c1.914-.142 1.93-3.144 0-3l-18.731 1.394c-1.914.143-1.93 3.144 0 3ZM332.488 52.823l18.731-1.394c1.914-.142 1.93-3.144 0-3l-18.731 1.394c-1.914.143-1.93 3.144 0 3ZM331.079 44.603l26.632 2.42c1.922.174 1.91-2.827 0-3l-26.632-2.42c-1.922-.175-1.91 2.826 0 3ZM45.038 30.789a6.636 6.636 0 0 0-6.133 4.005 5.974 5.974 0 0 0 1.374 7.096 7.102 7.102 0 0 0 6.73 1.367 6.003 6.003 0 0 0 4.022-5.643 6.707 6.707 0 0 0-4.178-6.469 1.506 1.506 0 0 0-1.845 1.048 1.543 1.543 0 0 0 1.047 1.845c.262.101-.238-.128.006.005.1.054.202.104.3.162.085.05.165.104.246.157.28.183-.136-.134.043.03.155.143.309.282.45.439.053.06.262.225.1.11-.125-.09-.048-.068 0 .003l.11.16a5.346 5.346 0 0 1 .319.55c.022.044.042.09.064.133.042.082.103.103.004 0-.094-.097-.034-.09 0 .004l.068.185a5.782 5.782 0 0 1 .177.617c.022.097.04.194.058.29.067.345-.01-.213.007.043.013.213.029.425.025.64q-.002.146-.013.293c-.003.05-.008.098-.012.147-.015.235-.016-.086.017-.108a2.77 2.77 0 0 0-.135.617c-.027.093-.06.184-.089.276-.104.322.098-.175-.013.045a5.487 5.487 0 0 1-.307.55c-.049.074-.233.241-.082.125.163-.127-.086.091-.14.147q-.102.108-.212.209a1.704 1.704 0 0 1-.149.13c-.01-.006.251-.174.11-.085-.177.114-.346.235-.534.334-.022.012-.262.123-.261.127-.01-.04.309-.112.09-.042-.046.015-.091.033-.137.049a4.9 4.9 0 0 1-.61.162c-.047.01-.097.014-.143.026-.155.04.148-.023.157-.018a1.308 1.308 0 0 0-.341.03 5.58 5.58 0 0 1-.64 0c-.049-.003-.098-.008-.147-.01-.114-.007-.198-.09-.046 0 .117.069.107.018.003 0-.048-.01-.097-.017-.146-.026a5.821 5.821 0 0 1-.624-.153c-.11-.034-.218-.073-.327-.111a.87.87 0 0 1-.138-.053c0-.012.28.134.132.054-.187-.1-.38-.185-.564-.296-.098-.059-.191-.123-.286-.186a.923.923 0 0 1-.119-.085c.003-.012.233.2.112.085-.152-.145-.315-.275-.46-.43-.032-.035-.063-.072-.096-.107l-.032-.036q-.122-.15-.005.001c.08.023.076.11 0-.003-.026-.04-.055-.08-.082-.12a3.134 3.134 0 0 1-.31-.553c.008-.006.13.36.037.084-.018-.052-.038-.104-.055-.156q-.052-.156-.091-.315c-.026-.106-.04-.214-.066-.319-.044-.177.026.14.018.132-.025-.025-.014-.178-.016-.215-.012-.235.015-.464.019-.698.003-.181-.015.141-.019.132a.508.508 0 0 1 .028-.16c.028-.123.053-.246.086-.368q.057-.21.132-.414c.018-.051.04-.101.058-.153.063-.188-.125.228-.021.058.142-.234.249-.487.4-.717.036-.055.254-.36.138-.206-.115.153.12-.137.163-.187.184-.204.4-.373.591-.569.113-.116-.078.057-.09.065l.177-.127q.156-.107.32-.203c.123-.072.262-.126.381-.202.141-.09-.107.04-.112.042a1.116 1.116 0 0 1 .201-.077c.116-.04.621-.259.727-.19-.005-.004-.383.03-.077.01.072-.005.144-.012.217-.015.146-.006.292-.002.439.006a1.51 1.51 0 0 0 1.5-1.5 1.533 1.533 0 0 0-1.5-1.5ZM66.038 30.789a6.636 6.636 0 0 0-6.133 4.005 5.974 5.974 0 0 0 1.374 7.096 7.102 7.102 0 0 0 6.73 1.367 6.003 6.003 0 0 0 4.022-5.643 6.707 6.707 0 0 0-4.178-6.469 1.506 1.506 0 0 0-1.845 1.048 1.543 1.543 0 0 0 1.047 1.845c.262.101-.238-.128.006.005.1.054.202.104.3.162.085.05.165.104.246.157.28.183-.136-.134.043.03.155.143.309.282.45.439.053.06.262.225.1.11-.125-.09-.048-.068 0 .003l.11.16a5.346 5.346 0 0 1 .319.55c.022.044.042.09.064.133.042.082.103.103.004 0-.094-.097-.034-.09 0 .004l.068.185a5.782 5.782 0 0 1 .177.617c.022.097.04.194.058.29.067.345-.01-.213.007.043.013.213.029.425.025.64q-.002.146-.013.293c-.003.05-.008.098-.012.147-.015.235-.016-.086.017-.108a2.77 2.77 0 0 0-.135.617c-.027.093-.06.184-.089.276-.104.322.098-.175-.013.045a5.487 5.487 0 0 1-.307.55c-.049.074-.233.241-.082.125.163-.127-.086.091-.14.147q-.102.108-.212.209a1.704 1.704 0 0 1-.149.13c-.01-.006.251-.174.11-.085-.177.114-.346.235-.534.334-.022.012-.262.123-.261.127-.01-.04.309-.112.09-.042-.046.015-.091.033-.137.049a4.9 4.9 0 0 1-.61.162c-.047.01-.097.014-.143.026-.155.04.148-.023.157-.018a1.308 1.308 0 0 0-.341.03 5.58 5.58 0 0 1-.64 0c-.049-.003-.098-.008-.147-.01-.114-.007-.198-.09-.046 0 .117.069.107.018.004 0-.05-.01-.098-.017-.147-.026a5.821 5.821 0 0 1-.624-.153c-.11-.034-.218-.073-.327-.111a.87.87 0 0 1-.138-.053c0-.012.28.134.132.054-.187-.1-.38-.185-.564-.296-.097-.059-.191-.123-.286-.186a.923.923 0 0 1-.119-.085c.003-.012.233.2.112.085-.152-.145-.315-.275-.46-.43-.032-.035-.063-.072-.096-.107l-.032-.036q-.122-.15-.005.001c.08.023.076.11 0-.003-.026-.04-.055-.08-.082-.12a3.134 3.134 0 0 1-.31-.553c.008-.006.13.36.037.084-.018-.052-.038-.104-.055-.156q-.052-.156-.091-.315c-.026-.106-.04-.214-.066-.319-.044-.177.026.14.018.132-.025-.025-.014-.178-.016-.215-.012-.235.015-.464.019-.698.003-.181-.015.141-.019.132a.508.508 0 0 1 .028-.16c.028-.123.053-.246.086-.368q.057-.21.132-.414c.018-.051.04-.101.058-.153.063-.188-.125.228-.021.058.142-.234.249-.487.4-.717.036-.055.254-.36.138-.206-.115.153.12-.137.163-.187.184-.204.4-.373.591-.569.113-.116-.078.057-.09.065l.177-.127q.156-.107.32-.203c.123-.072.262-.126.381-.202.141-.09-.107.04-.112.042a1.116 1.116 0 0 1 .201-.077c.116-.04.621-.259.727-.19-.005-.004-.383.03-.077.01.072-.005.144-.012.217-.015.146-.006.292-.002.439.006a1.51 1.51 0 0 0 1.5-1.5 1.533 1.533 0 0 0-1.5-1.5ZM87.038 30.789a6.636 6.636 0 0 0-6.133 4.005 5.974 5.974 0 0 0 1.374 7.096 7.102 7.102 0 0 0 6.73 1.367 6.003 6.003 0 0 0 4.022-5.643 6.707 6.707 0 0 0-4.178-6.469 1.506 1.506 0 0 0-1.845 1.048 1.543 1.543 0 0 0 1.047 1.845c.262.101-.238-.128.006.005.1.054.202.104.3.162.085.05.165.104.246.157.28.183-.136-.134.043.03.155.143.309.282.45.439.053.06.262.225.1.11-.125-.09-.048-.068 0 .003l.11.16a5.346 5.346 0 0 1 .319.55c.022.044.042.09.064.133.042.082.103.103.004 0-.094-.097-.034-.09 0 .004l.068.185a5.782 5.782 0 0 1 .177.617c.022.097.04.194.058.29.067.345-.01-.213.007.043.013.213.029.425.025.64q-.002.146-.013.293c-.003.05-.008.098-.012.147-.015.235-.016-.086.017-.108a2.77 2.77 0 0 0-.135.617c-.027.093-.06.184-.089.276-.104.322.098-.175-.013.045a5.487 5.487 0 0 1-.307.55c-.049.074-.233.241-.082.125.163-.127-.086.091-.14.147q-.102.108-.212.209a1.704 1.704 0 0 1-.149.13c-.01-.006.251-.174.11-.085-.177.114-.346.235-.534.334-.022.012-.262.123-.261.127-.01-.04.309-.112.09-.042-.046.015-.091.033-.137.049a4.9 4.9 0 0 1-.61.162c-.047.01-.097.014-.143.026-.155.04.148-.023.157-.018a1.308 1.308 0 0 0-.341.03 5.58 5.58 0 0 1-.64 0c-.049-.003-.098-.008-.147-.01-.114-.007-.198-.09-.046 0 .117.069.107.018.004 0-.05-.01-.098-.017-.147-.026a5.821 5.821 0 0 1-.624-.153c-.11-.034-.218-.073-.327-.111a.87.87 0 0 1-.138-.053c0-.012.28.134.132.054-.187-.1-.38-.185-.564-.296-.097-.059-.191-.123-.286-.186a.923.923 0 0 1-.119-.085c.003-.012.233.2.112.085-.152-.145-.315-.275-.46-.43-.032-.035-.063-.072-.096-.107l-.032-.036q-.122-.15-.005.001c.08.023.076.11 0-.003-.026-.04-.055-.08-.082-.12a3.134 3.134 0 0 1-.31-.553c.008-.006.13.36.037.084-.018-.052-.038-.104-.055-.156q-.052-.156-.091-.315c-.026-.106-.04-.214-.066-.319-.044-.177.026.14.018.132-.025-.025-.014-.178-.016-.215-.012-.235.015-.464.019-.698.003-.181-.015.141-.019.132a.508.508 0 0 1 .028-.16c.028-.123.053-.246.086-.368q.057-.21.132-.414c.018-.051.04-.101.058-.153.063-.188-.125.228-.021.058.142-.234.249-.487.4-.717.036-.055.254-.36.139-.206-.116.153.118-.137.162-.187.184-.204.4-.373.591-.569.113-.116-.078.057-.09.065l.177-.127q.156-.107.32-.203c.123-.072.262-.126.381-.202.141-.09-.107.04-.112.042a1.116 1.116 0 0 1 .201-.077c.116-.04.621-.259.727-.19-.004-.004-.383.03-.077.01.072-.005.144-.012.217-.015.146-.006.292-.002.439.006a1.51 1.51 0 0 0 1.5-1.5 1.533 1.533 0 0 0-1.5-1.5Z"/><path fill="#e6e6e6" d="M390.411 363H22.506a17.567 17.567 0 0 1-17.547-17.547V17.547A17.567 17.567 0 0 1 22.506 0H390.41a17.567 17.567 0 0 1 17.548 17.547v327.906A17.567 17.567 0 0 1 390.41 363ZM22.506 2A15.565 15.565 0 0 0 6.959 17.547v327.906A15.565 15.565 0 0 0 22.506 361H390.41a15.565 15.565 0 0 0 15.548-15.547V17.547A15.565 15.565 0 0 0 390.41 2Z"/><path fill="#e6e6e6" d="m21.896 223.106 129.38-.394 128.719-.391 72.61-.221a1.5 1.5 0 0 0 0-3l-129.379.394-128.719.391-72.61.22a1.5 1.5 0 0 0 0 3Z"/><path fill="#e6e6e6" d="m87.166 220.674.8-47.237c.033-1.931-2.967-1.932-3 0l-.8 47.237c-.033 1.931 2.967 1.931 3 0ZM149.001 221.185l1.95-59.375.557-16.964c.063-1.93-2.937-1.928-3 0l-1.95 59.375-.557 16.964c-.063 1.93 2.937 1.929 3 0ZM210.67 116.701c-1.176 21.03-3.352 83.06-4.528 104.09-.108 1.93 2.893 1.923 3 0 1.176-21.03 3.352-83.06 4.528-104.09.108-1.929-2.893-1.923-3 0ZM272.041 199.69l-.367 20.212c-.035 1.931 2.965 1.932 3 0 .434-23.873 1.548-23.095 1.67-29.832.036-1.932-2.964-1.932-3 0 0 0-.868-14.254-1.303 9.62ZM332.153 146.589l.34 56.708.097 16.238a1.5 1.5 0 0 0 3 0l-.34-56.708-.097-16.238a1.5 1.5 0 0 0-3 0Z"/><path fill="#e6e6e6" d="M22.138 221.418c-2.484-6.824 3.114-13.387 8.866-16.336 6.89-3.533 14.818-4.334 21.782-7.74 10.382-5.078 17.945-14.192 24.673-23.314 6.926-9.39 13.263-19.467 22.064-27.268a44.194 44.194 0 0 1 16.068-9.299c7.503-2.341 15.46-2.502 23.211-1.558 16.019 1.95 30.868 8.565 46.324 12.77 14.572 3.965 30.628 6.195 44.93.03 7.268-3.133 13.21-8.386 19.593-12.932a65.296 65.296 0 0 1 20.408-9.845c14.358-3.992 30.038-2.926 43.405 3.823a58.243 58.243 0 0 1 27.47 28.993c6.337 15.138 5.512 32.055 3.442 47.99-.535 4.118-1.172 8.223-1.815 12.326-.297 1.889 2.594 2.702 2.892.798 2.578-16.431 5.148-33.382 1.94-49.916a60.456 60.456 0 0 0-22.33-36.377 62.044 62.044 0 0 0-40.912-12.911 67.079 67.079 0 0 0-22.474 4.998c-7.42 3.069-13.702 7.617-20.083 12.404-6.562 4.92-13.325 8.991-21.472 10.596-7.901 1.557-16.12.973-23.988-.497-16.232-3.032-31.362-9.985-47.457-13.547-14.912-3.3-31.003-3.63-44.355 4.794-10.272 6.48-17.53 16.54-24.495 26.254-6.905 9.629-13.896 19.925-23.992 26.503-6.159 4.012-13.082 5.493-19.972 7.75-6.907 2.261-13.538 6.078-16.354 13.155a12.794 12.794 0 0 0-.262 9.154c.655 1.8 3.555 1.023 2.893-.798Z"/><path fill="#e6e6e6" d="m86.171 166.905-.004.002.008-.002h-.004z"/><path fill="#e6e6e6" d="M91.373 164.146a5.962 5.962 0 0 0-7.224-2.674 5.247 5.247 0 0 0-2.989 2.783c-.057.136-.09.28-.138.419-.065.105-.143.2-.2.31a5.958 5.958 0 0 0 9.29 7.118 6.416 6.416 0 0 0 1.26-7.956Zm-3.758 2.547c.013.076.008.145 0 0Zm-.382-.868c-.014-.017-.013-.015 0 0Zm-1.683.677c-.023-.035-.025-.04 0 0Zm.399.338c.095.032.057.025 0 0Zm.178.085.04-.018a.05.05 0 0 1-.028-.006l.032.004.006-.003-.018-.004c.015 0 .017.002.018.004.178-.082.058-.042-.046-.01l-.007-.002a.681.681 0 0 0-.205-.066c-.007-.004-.015-.006-.02-.01-.058-.041-.348-.268-.079-.03-.058-.052-.116-.103-.171-.159a.783.783 0 0 1-.088-.108q-.053-.09-.103-.183l-.005-.034-.012-.055a1.12 1.12 0 0 1 .008-.054.646.646 0 0 0 .038-.167l.011-.015c.043-.06.081-.13.122-.193-.217.33.085-.036.108-.083.004-.008-.003-.003-.001-.009.008-.005.006-.001.016-.007.068-.04.132-.084.2-.122.081-.045.402-.137.07-.041.075-.022.148-.05.224-.07.014-.003.126-.019.186-.03l.11-.002c.025 0 .05.003.075.004-.055.008.19.06.262.072l.03.024c.062.045.137.084.202.126-.29-.187.003.015.059.07.033.034.063.07.095.104a.809.809 0 0 1 .077.106c.047.087.098.175.148.261l.014.022a.083.083 0 0 0 0 .009 2.372 2.372 0 0 0 .114.407.333.333 0 0 1 .006.034c.005.076.01.152.011.229v.015a1.643 1.643 0 0 0-1.499-.01Z"/><path fill="#e6e6e6" d="M86.18 166.903c.005.001 0 .001 0 .002ZM86.18 166.903ZM86.18 166.905h-.005.004ZM86.177 166.902l.002.001-.002-.001zM150.171 138.905l-.004.002.008-.002h-.004z"/><path fill="#e6e6e6" d="M155.373 136.146a5.962 5.962 0 0 0-7.224-2.674 5.247 5.247 0 0 0-2.989 2.783c-.057.136-.09.28-.138.419-.065.105-.143.2-.2.31a5.958 5.958 0 0 0 9.29 7.118 6.416 6.416 0 0 0 1.26-7.956Zm-3.758 2.547c.013.076.008.145 0 0Zm-.382-.868c-.014-.017-.013-.015 0 0Zm-1.683.677c-.023-.035-.025-.04 0 0Zm.399.338c.095.032.057.025 0 0Zm.178.085.04-.018a.05.05 0 0 1-.028-.006l.032.004.006-.003-.018-.004c.015 0 .017.002.018.004.178-.082.058-.042-.046-.01l-.007-.002a.681.681 0 0 0-.205-.066c-.007-.004-.015-.006-.02-.01-.058-.041-.348-.268-.079-.03-.058-.052-.116-.103-.171-.159a.783.783 0 0 1-.088-.108q-.053-.09-.103-.183l-.005-.034-.012-.055a1.12 1.12 0 0 1 .008-.054.646.646 0 0 0 .038-.167l.011-.015c.043-.06.081-.13.122-.193-.217.33.085-.036.108-.083.004-.008-.003-.003-.001-.009.008-.005.006-.001.016-.007.068-.04.131-.084.2-.122.081-.045.402-.137.07-.041.075-.022.148-.05.224-.07.014-.003.126-.019.186-.03l.11-.002c.025 0 .05.003.075.004-.055.008.19.06.262.072l.03.024c.062.045.137.084.201.126-.29-.187.004.015.06.07.033.034.063.07.095.104a.809.809 0 0 1 .077.106c.047.087.098.175.148.261l.014.022a.083.083 0 0 0 0 .009 2.372 2.372 0 0 0 .114.407.333.333 0 0 1 .006.034c.005.076.01.152.011.229v.015a1.643 1.643 0 0 0-1.499-.01ZM150.18 138.905h-.005.004ZM150.177 138.902l.002.001-.002-.001z"/><path fill="#e6e6e6" d="M150.18 138.903c.005.001 0 .001 0 .002ZM150.18 138.903ZM212.177 152.902l.002.001-.002-.001zM217.373 108.146a5.962 5.962 0 0 0-7.224-2.674 5.247 5.247 0 0 0-2.989 2.783c-.057.136-.09.28-.138.419-.065.105-.143.2-.2.31a5.958 5.958 0 0 0 9.29 7.118 6.416 6.416 0 0 0 1.26-7.956Zm-3.758 2.547c.013.076.008.145 0 0Zm-.382-.868c-.014-.017-.013-.015 0 0Zm-1.683.677c-.023-.035-.025-.04 0 0Zm.399.338c.095.032.057.025 0 0Zm.178.085.04-.018a.05.05 0 0 1-.028-.006l.032.004.006-.003-.018-.004c.015 0 .017.002.018.004.178-.082.058-.042-.046-.01l-.007-.002a.681.681 0 0 0-.205-.066c-.007-.004-.015-.006-.02-.01-.058-.041-.348-.268-.079-.03-.058-.052-.116-.103-.171-.159a.783.783 0 0 1-.088-.108q-.053-.09-.103-.183l-.005-.034-.012-.055a1.12 1.12 0 0 1 .008-.054.646.646 0 0 0 .038-.167l.011-.015c.043-.06.081-.13.122-.193-.217.33.085-.036.108-.083.004-.008-.003-.003-.001-.009.008-.005.006-.001.016-.007.068-.04.131-.084.2-.122.081-.045.402-.137.07-.041.075-.022.148-.05.224-.07.014-.003.126-.019.186-.03l.11-.002c.025 0 .05.003.075.004-.055.008.19.06.262.072l.03.024c.062.045.137.084.201.126-.29-.187.004.015.06.07.033.034.063.07.095.104a.809.809 0 0 1 .077.106c.047.087.098.175.148.261l.014.022a.083.083 0 0 0 0 .009 2.372 2.372 0 0 0 .114.407.333.333 0 0 1 .006.034c.005.076.01.152.011.229v.015a1.643 1.643 0 0 0-1.499-.01ZM212.171 152.905l-.004.002.008-.002h-.004zM212.18 152.903ZM212.18 152.905h-.005.004ZM212.18 152.903c.005.001 0 .001 0 .002ZM280.373 185.146a5.962 5.962 0 0 0-7.224-2.674 5.247 5.247 0 0 0-2.989 2.783c-.057.136-.09.28-.138.419-.065.105-.143.2-.2.31a5.958 5.958 0 0 0 9.29 7.118 6.416 6.416 0 0 0 1.26-7.956Zm-3.758 2.547c.013.076.008.145 0 0Zm-.382-.868c-.014-.017-.013-.015 0 0Zm-1.683.677c-.023-.035-.025-.04 0 0Zm.399.338c.095.032.057.025 0 0Zm.178.085.04-.018a.05.05 0 0 1-.028-.006l.032.004.006-.003-.018-.004c.015 0 .017.002.018.004.178-.082.058-.042-.046-.01l-.007-.002a.681.681 0 0 0-.205-.066c-.007-.004-.015-.006-.02-.01-.058-.041-.348-.268-.079-.03-.058-.052-.116-.103-.171-.159a.783.783 0 0 1-.088-.108q-.053-.09-.103-.183l-.005-.034-.012-.055a1.12 1.12 0 0 1 .008-.054.646.646 0 0 0 .038-.167l.011-.015c.043-.06.081-.13.122-.193-.217.33.085-.036.108-.083.004-.008-.003-.003-.001-.009.008-.005.006-.001.016-.007.068-.04.131-.084.2-.122.081-.045.402-.137.07-.041.075-.022.148-.05.224-.07.014-.003.126-.019.186-.03l.11-.002c.025 0 .05.003.075.004-.055.008.19.06.262.072l.03.024c.062.045.137.084.201.126-.29-.187.004.015.06.07.033.034.063.07.095.104a.809.809 0 0 1 .077.106c.047.087.098.175.148.261l.014.022a.083.083 0 0 0 0 .009 2.372 2.372 0 0 0 .114.407.333.333 0 0 1 .006.034c.005.076.01.152.011.229v.015a1.643 1.643 0 0 0-1.499-.01ZM275.171 121.905l-.004.002.008-.002h-.004zM275.18 121.903ZM275.18 121.905h-.005.004ZM275.18 121.903c.005.001 0 .001 0 .002ZM275.177 121.902l.002.001-.002-.001zM334.18 141.903ZM339.373 139.146a5.962 5.962 0 0 0-7.224-2.674 5.247 5.247 0 0 0-2.989 2.783c-.057.136-.09.28-.138.419-.065.105-.143.2-.2.31a5.958 5.958 0 0 0 9.29 7.118 6.416 6.416 0 0 0 1.26-7.956Zm-3.758 2.547c.013.076.008.145 0 0Zm-.382-.868c-.014-.017-.013-.015 0 0Zm-1.683.677c-.023-.035-.025-.04 0 0Zm.399.338c.095.032.057.025 0 0Zm.178.085.04-.018a.05.05 0 0 1-.028-.006l.032.004.006-.003-.018-.004c.015 0 .017.002.018.004.178-.082.058-.042-.046-.01l-.007-.002a.681.681 0 0 0-.205-.066c-.007-.004-.015-.006-.02-.01-.058-.041-.348-.268-.079-.03-.058-.052-.116-.103-.171-.159a.783.783 0 0 1-.088-.108q-.053-.09-.103-.183l-.005-.034-.012-.055a1.12 1.12 0 0 1 .008-.054.646.646 0 0 0 .038-.167l.011-.015c.043-.06.081-.13.122-.193-.217.33.085-.036.108-.083.004-.008-.003-.003-.001-.009.008-.005.006-.001.016-.007.068-.04.131-.084.2-.122.081-.045.402-.137.07-.041.075-.022.148-.05.224-.07.014-.003.126-.019.186-.03l.11-.002c.025 0 .05.003.075.004-.055.008.19.06.262.072l.03.024c.062.045.137.084.201.126-.29-.187.004.015.06.07.033.034.063.07.095.104a.809.809 0 0 1 .077.106c.047.087.098.175.148.261l.014.022a.083.083 0 0 0 0 .009 2.372 2.372 0 0 0 .114.407.333.333 0 0 1 .006.034c.005.076.01.152.011.229v.015a1.643 1.643 0 0 0-1.499-.01Z"/><path fill="#e6e6e6" d="m334.171 141.905-.004.002.008-.002h-.004zM334.177 141.902l.002.001-.002-.001zM334.18 141.903c.005.001 0 .001 0 .002ZM334.18 141.905h-.005.004Z"/><path fill="#3f3d56" d="m318.003 187.733-46.497 2.585a1.025 1.025 0 0 1-.221-2.036l47.524-7.733Z"/><path fill="#ffb6b6" d="m377.094 291.25 17.522-29.479 12.95 6.117s-22.315 27.871-23.026 28.673a6.857 6.857 0 1 1-7.446-5.312Z"/><path fill="#d64045" d="m384.382 222.774 28.388 14.81a15.716 15.716 0 0 1 2.66 23.079l-19.57 22.45-8.525-11.553 6.57-13.74-12.723-3.355Z"/><path fill="#ffb6b6" d="m303.486 188.215-3.198 34.143-14.322.024s8.217-34.746 8.516-35.775a6.857 6.857 0 1 1 9.004 1.608Z"/><path fill="#d64045" d="m331.995 258.037-32.965-6.046c-13.881-1.669-19.578-10.803-17.073-19.711l8.06-28.67 12.655 6.784-.05 15.23 17.714-2.422Z"/><path fill="#ffb6b6" d="M318.501 493.992h-9.064l-4.312-34.962h13.378l-.002 34.962z"/><path fill="#2f2e41" d="m318.82 503.448-27.873-.001v-.352a10.85 10.85 0 0 1 10.85-10.85l5.091-3.862 9.5 3.863h2.433Z"/><path fill="#ffb6b6" d="M382.636 493.992h9.064l4.312-34.962h-13.378l.002 34.962z"/><path fill="#2f2e41" d="m382.317 503.448 27.873-.001v-.352a10.85 10.85 0 0 0-10.849-10.85l-5.092-3.862-9.5 3.863h-2.433ZM304.726 433.338c.134-1.995 1.199-13.028 1.199-13.028l2.549-23.397 4.493-62.022 4.006-16.302 19.825 7.723 16.087-7.712 19.121 6.112 14.889 5.584s.025 2.39.14 5.277c.153 3.78.42 8.413 1.058 9.618 1.065 2.129.797 13.557.797 13.557s1.058 23.25 2.39 25.8 1.6 7.859 1.198 8.923 1.332 28.987 1.332 28.987 4.45 49.413 1.658 56.864-13.34 2.57-13.34 2.57.51-1.988-2.55-2.925-12.378-71.002-12.378-71.002-1.733-14.367-3.327-18.484-3.059-15.685-3.059-15.685-9.84-19.147-9.968-23.404c0 0-1.288-3.984-2.505.401s-4.806 14.889-4.806 14.889l-3.499 12.9-4.117 19.274-2.664 16.227s-3.99 21.537-4.628 22.467 0 20.606 0 20.606-3.085 16.756-7.444 19.682-15.91.046-15.91.046-.68-41.551-.547-43.546Z"/><path fill="#d64045" d="m319.547 266.132-2.533 32.818-3.806 3.94a3.67 3.67 0 0 0 .192 5.285l-2.097 3.596-.742 11.33a6.158 6.158 0 0 0 5.699 7.59l65.632 3.084a6.158 6.158 0 0 0 6.393-6.963l-5.58-42.014v-3.141l-2.5-6.067 1.285-20.324 2.987-32.259-17.362-4.485-9.414-6.477-16.355.26-9.924 8.151-13.231 2.072-10.007 1.99-1.275 2.77 2.55-.554 9.24 36.04Z"/><circle cx="349.158" cy="188.382" r="19.266" fill="#ffb6b6"/><path fill="#2f2e41" d="m344.513 206.405 13.92-.71c1.783-.091 3.73-.248 5.027-1.476a7.616 7.616 0 0 0 1.578-2.621c1.287-2.99 2.574-5.978 3.828-8.982 1.734-4.153 3.438-8.54 2.995-13.02a8.285 8.285 0 0 0-2.409-5.43 4.6 4.6 0 0 0-5.59-.567 9.452 9.452 0 0 0-4.692-6.812 14.486 14.486 0 0 0-8.262-1.752 19.94 19.94 0 0 0-11.356 4.476 24.65 24.65 0 0 1-2.897 2.296 4.548 4.548 0 0 1-3.536.654 2.559 2.559 0 0 1-1.879-2.79 4.923 4.923 0 0 0-1.259 6.5 4.543 4.543 0 0 1-4.44-.525 5.428 5.428 0 1 0 5.693 9.189c.845 1.183.53 2.791.42 4.24s.279 3.252 1.676 3.653c1.89.542 3.42-2.002 5.385-1.975a2.956 2.956 0 0 1 2.344 1.51 8.724 8.724 0 0 1 .939 2.74l2.515 11.323"/><path fill="#e6e6e6" d="M887.257 379.637c0-2.984-1.002-5.405-2.232-5.41H549.68c-1.235.005-2.232 2.426-2.237 5.41v122.81a1.115 1.115 0 0 1-1.007 1.109q-1.35.13-2.7.241c-.022 0-.045.006-.067.006-.49.044-.98.078-1.47.117h-.005q-.378-.7-.747-1.41a1.12 1.12 0 0 1-.127-.517V372.618c0-.824.034-1.653.09-2.471a31.661 31.661 0 0 1 .417-3.35c.94-5.172 3.067-8.673 5.482-8.684h340.082a2.606 2.606 0 0 1 1.024.217 3.993 3.993 0 0 1 1.263.885 7.831 7.831 0 0 1 1.242 1.698 22.343 22.343 0 0 1 2.343 8.866c0 .034.005.067.005.1.078.902.117 1.82.112 2.74l.078 11.927.05 7.113.15 22.32.056 7.926.245 81.375a1.113 1.113 0 0 1-1.114 1.113h-4.475a1.113 1.113 0 0 1-1.113-1.113Z"/><path fill="#ccc" d="M796.133 302.3H760a1.928 1.928 0 0 0-1.925 1.93v57.081h39.99V304.23a1.929 1.929 0 0 0-1.93-1.93Zm-17.945 32.433a4.287 4.287 0 0 1-4.267-4.267v-6.584a4.267 4.267 0 0 1 8.534 0v6.584a4.287 4.287 0 0 1-4.267 4.267Z"/><path fill="#3f3d56" d="M757.95 359.485v5.507a1.079 1.079 0 0 0 1.077 1.077h38.084a1.082 1.082 0 0 0 1.076-1.077v-5.507Z"/><path fill="#e6e6e6" d="M855.968 213.219H701.509a5.014 5.014 0 0 0-5.006 5.006v104.229a5.01 5.01 0 0 0 5.006 5.006h154.459a5.01 5.01 0 0 0 5.006-5.006v-104.23a5.014 5.014 0 0 0-5.006-5.005Z"/><path fill="#fff" d="M854.679 216.834h-151.88a2.683 2.683 0 0 0-2.677 2.683v101.646a2.682 2.682 0 0 0 2.678 2.677h151.879a2.682 2.682 0 0 0 2.677-2.677V219.517a2.683 2.683 0 0 0-2.677-2.683Z"/><path fill="#ccc" d="M825.095 367.985h-90.36a1.662 1.662 0 0 1-1.626-2.004l1.402-6.66a1.67 1.67 0 0 1 1.626-1.32h87.556a1.67 1.67 0 0 1 1.627 1.32l1.402 6.66a1.662 1.662 0 0 1-1.627 2.004Z"/><rect width="2.783" height="1.67" x="736.779" y="359.201" fill="#e6e6e6" rx=".488"/><rect width="2.783" height="1.67" x="742.345" y="359.201" fill="#e6e6e6" rx=".488"/><rect width="2.783" height="1.67" x="747.911" y="359.201" fill="#e6e6e6" rx=".488"/><rect width="2.783" height="1.67" x="753.477" y="359.201" fill="#e6e6e6" rx=".488"/><rect width="2.783" height="1.67" x="759.043" y="359.201" fill="#e6e6e6" rx=".488"/><rect width="2.783" height="1.67" x="764.609" y="359.201" fill="#e6e6e6" rx=".488"/><rect width="2.783" height="1.67" x="770.175" y="359.201" fill="#e6e6e6" rx=".488"/><rect width="2.783" height="1.67" x="775.741" y="359.201" fill="#e6e6e6" rx=".488"/><rect width="2.783" height="1.67" x="781.307" y="359.201" fill="#e6e6e6" rx=".488"/><rect width="2.783" height="1.67" x="786.873" y="359.201" fill="#e6e6e6" rx=".488"/><rect width="2.783" height="1.67" x="792.439" y="359.201" fill="#e6e6e6" rx=".488"/><rect width="2.783" height="1.67" x="798.005" y="359.201" fill="#e6e6e6" rx=".488"/><rect width="2.783" height="1.67" x="803.571" y="359.201" fill="#e6e6e6" rx=".488"/><rect width="2.783" height="1.67" x="809.137" y="359.201" fill="#e6e6e6" rx=".488"/><rect width="2.783" height="1.67" x="814.703" y="359.201" fill="#e6e6e6" rx=".488"/><rect width="2.783" height="1.67" x="820.269" y="359.201" fill="#e6e6e6" rx=".488"/><rect width="2.783" height="1.67" x="736.713" y="361.984" fill="#e6e6e6" rx=".488"/><rect width="2.783" height="1.67" x="742.279" y="361.984" fill="#e6e6e6" rx=".488"/><rect width="2.783" height="1.67" x="747.845" y="361.984" fill="#e6e6e6" rx=".488"/><rect width="2.783" height="1.67" x="753.411" y="361.984" fill="#e6e6e6" rx=".488"/><rect width="2.783" height="1.67" x="758.977" y="361.984" fill="#e6e6e6" rx=".488"/><rect width="2.783" height="1.67" x="764.543" y="361.984" fill="#e6e6e6" rx=".488"/><rect width="2.783" height="1.67" x="770.109" y="361.984" fill="#e6e6e6" rx=".488"/><rect width="2.783" height="1.67" x="775.675" y="361.984" fill="#e6e6e6" rx=".488"/><rect width="2.783" height="1.67" x="781.241" y="361.984" fill="#e6e6e6" rx=".488"/><rect width="2.783" height="1.67" x="786.807" y="361.984" fill="#e6e6e6" rx=".488"/><rect width="2.783" height="1.67" x="792.373" y="361.984" fill="#e6e6e6" rx=".488"/><rect width="2.783" height="1.67" x="797.939" y="361.984" fill="#e6e6e6" rx=".488"/><rect width="2.783" height="1.67" x="803.505" y="361.984" fill="#e6e6e6" rx=".488"/><rect width="2.783" height="1.67" x="809.071" y="361.984" fill="#e6e6e6" rx=".488"/><rect width="2.783" height="1.67" x="814.637" y="361.984" fill="#e6e6e6" rx=".488"/><rect width="2.783" height="1.67" x="820.203" y="361.984" fill="#e6e6e6" rx=".488"/><rect width="22.264" height="1.67" x="763.43" y="365.324" fill="#e6e6e6" rx=".488"/><path fill="#cacaca" d="M847.044 230.839H704.93a.565.565 0 0 1 0-1.13h142.113a.565.565 0 0 1 0 1.13Z"/><ellipse cx="714.605" cy="223.437" fill="#ccc" rx="3.312" ry="3.386"/><ellipse cx="726.047" cy="223.437" fill="#ccc" rx="3.312" ry="3.386"/><ellipse cx="737.488" cy="223.437" fill="#ccc" rx="3.312" ry="3.386"/><path fill="#ccc" d="M840.155 220.89h-8.127a.616.616 0 0 0 0 1.231h8.127a.616.616 0 0 0 0-1.23ZM840.155 223.2h-8.127a.616.616 0 0 0 0 1.231h8.127a.616.616 0 0 0 0-1.23ZM840.155 225.508h-8.127a.616.616 0 0 0 0 1.23h8.127a.616.616 0 0 0 0-1.23Z"/><rect width="22.588" height="4.83" x="767.289" y="261.629" fill="#d64045" rx="2.415"/><rect width="45.531" height="4.83" x="755.817" y="271.289" fill="#e6e6e6" rx="2.415"/><rect width="45.531" height="4.83" x="755.817" y="280.949" fill="#e6e6e6" rx="2.415"/><path fill="#ffb6b6" d="m524.726 431.447-8.186-3.916 11.245-34.217 12.082 5.778-15.141 32.355zM579.608 425.93a220.595 220.595 0 0 1-7.234 4.33v.018l-.036.006-.012.006-.926.228-1.328-3.511-.614-1.618-.866-2.29-1.587-4.192-8.358-22.068 12.994-3.205.487 1.99h.006l.24.986 4.54 18.413.926 3.764.03.114.56 2.249.48 1.948.536 2.177Z"/><path fill="#2f2e41" d="M657.124 348.432a243.3 243.3 0 0 1-2.513 3.945q-2.363 3.644-4.853 7.18c0 .006-.006.006-.012.012a16.976 16.976 0 0 1-3.187 2.327c-.048.036-.102.06-.15.09a11.75 11.75 0 0 1-2.682 1.076l-1.016.253a67.807 67.807 0 0 1-3.614.751c-2.129.38-4.233.65-6.326.818-.168.018-.336.03-.505.042-8.605.632-16.98-.385-25.724-2.05-4.317-.818-8.725-1.798-13.289-2.814a639.884 639.884 0 0 0-4.504-.999c-.114-.024-.234-.054-.354-.078a500.902 500.902 0 0 0-6.62-1.407 313.124 313.124 0 0 0-8.81-1.683l.217 4.287a32.268 32.268 0 0 0 2.032 9.639c1.299 3.8 2.327 6.807.156 13.066l-1.046 3.03a10.35 10.35 0 0 1-1.064 9.159l-.21.319 8.724 22.074.566 1.43h-4.468l-5.496.007h-9.314l-13.44-26.963-.643-1.287v-.066l1.389-51.815c.018-.457.054-.92.114-1.377a15.753 15.753 0 0 1 5.995-10.607 15.17 15.17 0 0 1 11.299-3.09l4.6.595 9.398 1.214 6.62.86.133.018 19.524 2.526 1.401-5.713.259-.096 8.22-3.012 28.43-10.421.072-.024 1.87-.686.222.361c.067.108.133.217.193.325a55.728 55.728 0 0 1 4.492 10.427 163.683 163.683 0 0 1 4.72 18.02q.081.398.144.722l.018.067c.018.102.03.168.036.186a16.818 16.818 0 0 1-1.004 9.362Z"/><path fill="#2f2e41" d="M658.324 329.337c-.09-.385-.204-.776-.324-1.154a82.27 82.27 0 0 0-3.332-8.43c-1.419-3.128-3.12-6.477-5.147-10.103q-1.47-2.634-3.163-5.478-.848-1.425-1.762-2.904a1.53 1.53 0 0 0-.078-.132l-.174-.289-28.13 3.764-10.474 1.401-.626 5.22-.15 1.293c-.006 0-.006 0 0 .006l-.42 3.523v.006l-.56 4.654-.048-.006-15.544-2.014-16.019-2.075-8.605-1.112a15.162 15.162 0 0 0-11.298 3.09 15.761 15.761 0 0 0-5.995 10.608c-.054.42-.09.854-.108 1.28l-8.118 19.237a124.108 124.108 0 0 0-9.176 36.102l-5.953 19.031.848.079 12.615 1.172 3.331.313 7.336-10.71a56.54 56.54 0 0 0 2.37-3.764 57.167 57.167 0 0 0 3.24-6.518l15.87-37.762q1.84.316 3.643.601 8.343 1.353 16.019 2.207c16.638 1.858 31.046 2.003 43.872.427q5.402-.658 10.444-1.732 1.85-.388 3.65-.835c.283-.067.56-.133.836-.205a15.345 15.345 0 0 0 10.733-10.03 15.657 15.657 0 0 0 .397-8.76ZM527.341 425.86l-8.857-4.246-1.39-.668-2.218 5.448-15.49 3.41a3.675 3.675 0 0 0-.6 6.993l15.134 6.175 4.804-4.323-1.178 5.803 5.7 2.327 6.248-19.886ZM581.774 417.469l.566 1.431h-.566v-1.431zM578.69 419.206l-9.281 3.215-1.457.503 2.257 5.433-8.608 13.321a3.675 3.675 0 0 0 4.493 5.392l15.1-6.26.372-6.453 3.245 4.952 5.688-2.357-9.552-18.526Z"/><path fill="#ffb6b6" d="M522.36 220.25a6.592 6.592 0 0 0 9.857 2.234l19.516 12.955.037-12.173-18.538-10.436a6.627 6.627 0 0 0-10.872 7.419Z"/><path fill="#ccc" d="m536.94 225.875 9.105-10.358 37.074 22.01 49.146-4.502a16.619 16.619 0 0 1 18.063 18.081 16.637 16.637 0 0 1-18.08 15.016L576.898 261Z"/><path fill="#ccc" d="m651.006 226.035-.085-.107a35.907 35.907 0 0 0-34.752 18.006l-4.171 7.347c-13.491 16.494-3.688 27.868-3.101 29.56l-4.683 21.59 1.05 7.227.524 2.146 53.454 27.93c3.043-14.621.1-27.082-10.987-36.6l10.728-33.378a47.02 47.02 0 0 0-7.977-43.72Z"/><path fill="#d64045" d="M608.504 388.192h-17.147a3.917 3.917 0 0 1-3.875-3.367 87.18 87.18 0 0 1 0-23.48 3.917 3.917 0 0 1 3.81-3.366c5.394-2.418 11.204-2.418 17.27 0a3.872 3.872 0 0 1 2.947 1.42 3.96 3.96 0 0 1 .817 3.302 52.71 52.71 0 0 0 0 20.768 3.96 3.96 0 0 1-.817 3.302 3.871 3.871 0 0 1-3.005 1.42Z"/><path fill="#fff" d="M606.708 366.93h-14.432a.902.902 0 1 1 0-1.804h14.432a.902.902 0 1 1 0 1.804ZM606.708 374.146h-14.432a.902.902 0 1 1 0-1.804h14.432a.902.902 0 1 1 0 1.804ZM606.708 381.362h-14.432a.902.902 0 1 1 0-1.804h14.432a.902.902 0 1 1 0 1.804Z"/><path fill="#d64045" d="M525.504 226.192h-17.147a3.917 3.917 0 0 1-3.875-3.367 87.18 87.18 0 0 1 0-23.48 3.917 3.917 0 0 1 3.81-3.366c5.394-2.418 11.204-2.418 17.27 0a3.872 3.872 0 0 1 2.947 1.42 3.96 3.96 0 0 1 .817 3.302 52.71 52.71 0 0 0 0 20.768 3.96 3.96 0 0 1-.817 3.302 3.871 3.871 0 0 1-3.005 1.42Z"/><path fill="#fff" d="M523.708 204.93h-14.432a.902.902 0 1 1 0-1.804h14.432a.902.902 0 1 1 0 1.804ZM523.708 212.146h-14.432a.902.902 0 1 1 0-1.804h14.432a.902.902 0 1 1 0 1.804ZM523.708 219.362h-14.432a.902.902 0 1 1 0-1.804h14.432a.902.902 0 1 1 0 1.804Z"/><path fill="#d64045" d="M224.504 270.192h-17.147a3.917 3.917 0 0 1-3.875-3.367 87.18 87.18 0 0 1 0-23.48 3.917 3.917 0 0 1 3.81-3.366c5.394-2.418 11.204-2.418 17.27 0a3.872 3.872 0 0 1 2.947 1.42 3.96 3.96 0 0 1 .817 3.302 52.71 52.71 0 0 0 0 20.768 3.96 3.96 0 0 1-.817 3.302 3.871 3.871 0 0 1-3.005 1.42Z"/><path fill="#fff" d="M222.708 248.93h-14.432a.902.902 0 1 1 0-1.804h14.432a.902.902 0 1 1 0 1.804ZM222.708 256.146h-14.432a.902.902 0 1 1 0-1.804h14.432a.902.902 0 1 1 0 1.804ZM222.708 263.362h-14.432a.902.902 0 1 1 0-1.804h14.432a.902.902 0 1 1 0 1.804Z"/><path fill="#ffb6b6" d="M613.527 366.274a6.592 6.592 0 0 0 1.646-9.973l11.775-20.25-12.153.686-9.319 19.124a6.627 6.627 0 0 0 8.051 10.413Z"/><path fill="#ccc" d="m618.279 351.386-10.88-8.475 19.77-38.314-7.408-48.792a16.619 16.619 0 0 1 16.977-19.105 16.637 16.637 0 0 1 16.063 17.157l-1.83 55.557Z"/><path fill="#9e616a" d="M92.385 340.918a6.646 6.646 0 0 0-.924-10.15l10.582-52.56-11.686 3.752-8.47 50.84a6.682 6.682 0 0 0 10.498 8.118Z"/><path fill="#ccc" d="m108.01 229.714-7.25-5.473s-6.396-.453-7.53 11.082-3.458 34.013-3.458 34.013l-11.095 51.387 15.358 3.37 11.884-55.454 7.128-16.468Z"/><path fill="#9e616a" d="m96.057 313.623 40.857-.681 3.405-27.919H96.057v28.6zM132.828 485.427h9.432l4.487-36.381-13.921.001.002 36.38zM73.738 486.301l9.432-.067 4.232-36.411-12.267 2.814-1.397 33.664z"/><path fill="#ffb6b6" d="m103.238 260.98-2.137 5.556.427 5.557 41.827 14.487-2.075-24.318-4.702-5.557-33.34 4.275z"/><circle cx="121.182" cy="196.036" r="14.939" fill="#9e616a"/><path fill="#2f2e41" d="m130.489 480.774 14.91-.89v6.389l14.175 9.79a3.99 3.99 0 0 1-2.267 7.274h-17.751l-3.06-6.32-1.195 6.32h-6.692ZM70.511 481.67l14.904-.994.045 6.388 14.243 9.69a3.99 3.99 0 0 1-2.216 7.29l-17.75.124-3.105-6.297-1.15 6.327-6.693.047ZM70.803 458.407l6.868-54.898 8.172-57.881c-5.985-11.113 7.49-45.624 7.49-45.624l1.902.092 43.05 8.121-.01-.041c8.806 24.016 11.723 35.88 11.24 61.454l-1.734 91.935h.544a3.405 3.405 0 0 1 0 6.81h-17.024a3.405 3.405 0 1 1 0-6.81h.44l-15.626-109.467-13.249 45.963-14.98 59.924c5.447-1.362 4.601 1.793 4.601 3.58a3.405 3.405 0 0 1-3.405 3.405H72.06a3.401 3.401 0 0 1-1.256-6.563Z"/><path fill="#ccc" d="m89.981 301.792 1.362-13.62a2.715 2.715 0 0 1 2.455-2.038c.567-6.488 2.955-34.476 3.097-35.697l.006-.051 1.086-23.192a3.43 3.43 0 0 1 3.202-3.262l5.734-.375a.303.303 0 0 0 .293-.303 4.822 4.822 0 0 1 4.822-4.822h16.977a4.515 4.515 0 0 1 4.478 3.952.3.3 0 0 0 .305.27h.002a8.066 8.066 0 0 1 8.114 6.69c2.32 13.504 6.972 44.152 4.672 61.191-.8 5.932.925 1.234 1.228 6.197a3.653 3.653 0 0 1-.91 2.649 2.634 2.634 0 0 1 1.586 3.347l.298-.074a2.724 2.724 0 0 1-3.307 1.976l-44.415 6.018c-1.459-.368-11.453-7.397-11.085-8.856Z"/><path fill="#9e616a" d="M208.666 246.42a6.646 6.646 0 0 1-9.36 4.031l-17.171 15.67-2.28-12.06 16.666-12.992a6.682 6.682 0 0 1 12.145 5.35Z"/><path fill="#ccc" d="M148.901 234.442s-5.987-13.53-13.55-10.841-3.657 15.818-3.657 15.818l28.411 42.811s40.98-26.287 35.996-26.473-6.473-9.249-6.473-9.249l-21.659 10.822-.732-3.852-1.175 1.174-3.03-2.386Z"/><circle cx="638.683" cy="198.721" r="20.857" fill="#ffb6b6"/><path fill="#2f2e41" d="M705.62 229.412a18.088 18.088 0 0 1-9.943 7 20.797 20.797 0 0 1-4.95.84 18.715 18.715 0 0 0-1.471-5.498 15.45 15.45 0 0 1-.764 5.486 18.388 18.388 0 0 1-7.236-1.94 15.945 15.945 0 0 1-8.531-11.443c-.884-5.705 1.703-11.306 2.638-17.003.94-5.696-.824-12.91-6.4-14.407-4.246-1.141-3.77-.648-7.3 1.973 3.672 5.43-9.89 25.326-15.441 23.59-3.139-.98-5.148-3.86-5.795-3.86-4.362 7.515 3.852 20.177-4.427 22.807l.682-.682c4.997-6.147-5.447-19.156-.45-25.303 1.394-1.72 2.878-3.757 2.466-5.932-.39-2.067-3.671-3.161-4.632-1.463 1.728-3.959-.824-9.243-5.049-10.26-3.753-.905-3.684.21-7.45.695a18.69 18.69 0 0 0-1.368-4.722 15.323 15.323 0 0 1-.562 4.812 6.043 6.043 0 0 1-3.655-1.32c-3.071-2.476-2.45-7.674.292-10.51 2.745-2.835 6.824-3.856 10.714-4.516 1.131-7.876 22.86-8.697 25.74-.828 1.227-5.876 8.583-8.926 14.3-7.103s9.686 7.163 11.775 12.79c2.089 5.624 2.672 11.676 3.959 17.535s3.461 11.826 7.94 15.82c4.477 3.988 11.774 5.31 16.492 1.603a13.208 13.208 0 0 1-1.575 11.839Z"/><path fill="#e4e4e4" d="m901.295 277.007-2.92 14.65c-.22 1.12-.45 2.26-.7 3.39a14.288 14.288 0 0 0-7.34.41 68.511 68.511 0 0 1 5.04 8.43c-1.84 5.67-4.54 10.91-9.06 14.7a22.72 22.72 0 0 1-21.95 3.86l.13-.58c-4.86-9.43-2.22-21.32 3.82-30.03a58.385 58.385 0 0 1 10.85-11.47c4.08-3.4 8.49-6.45 12.86-9.46a5.99 5.99 0 0 1 9.27 6.1Z"/><path fill="#f2f2f2" d="M865.405 357.697c-1.229-8.953-2.493-18.02-1.631-27.069.766-8.036 3.217-15.885 8.209-22.32a37.132 37.132 0 0 1 9.527-8.634c.953-.6 1.829.91.881 1.507a35.3 35.3 0 0 0-13.963 16.847c-3.04 7.732-3.528 16.161-3 24.374.317 4.967.988 9.9 1.665 14.83a.9.9 0 0 1-.61 1.074.878.878 0 0 1-1.074-.61Z" data-name="a4b268fa-75d0-4ac1-9d87-14bdca948464-2189"/><path fill="#cacaca" d="m934.94 504.989-933.75.307a1.19 1.19 0 0 1 0-2.381l933.75-.308a1.19 1.19 0 0 1 0 2.382Z"/><path fill="#2f2e41" d="M103.6 186.89c-2.291 1.099-4.856-.555-6.834-2.194l.707.61c-3.496 3.402-5.13 8.296-5.929 13.113-.8 4.812-.888 9.733-1.895 14.511-1.007 4.773-3.097 9.569-7 12.492-5.229 3.916-12.44 3.664-18.858 2.464-.085-.017-.165-.03-.25-.048a39.176 39.176 0 0 0 2.063-15.53 35.62 35.62 0 0 1-8.551 14.016 81.771 81.771 0 0 1-12.418-4.525c-2.595-1.195-5.39-2.828-6.11-5.593-.721-2.744.955-5.623 3.197-7.356s4.994-2.637 7.548-3.871c2.55-1.23 5.073-2.981 6.093-5.626 2.355-6.084-4.353-13.065-1.739-19.046 1.29-2.94 4.447-4.54 7.415-5.774a108.825 108.825 0 0 1 13.926-4.697c4.163-1.098 8.51-1.951 12.751-1.231s8.396 3.299 9.922 7.327c2.547.86 5.251 1.83 6.886 3.974 1.633 2.14 1.502 5.821-.924 6.983Z"/><path fill="#2f2e41" d="M123.986 179.84c-6.554-5.175-11.854-4.292-15.942-1.077-.687-.765-3.612 1.339-4.603 1.037l-3.581 6.724c-1.844 3.252-2.6 6.573-2.302 8.441-3.39 9.508 4.65 15.929 14.158 19.319a18.143 18.143 0 0 0 11.765.17l.117-1.62.72 1.328s8.692 17.897 10.746 18.7c-1.247-3.232-4.534-18.598-5.451-21.8-1.258-4.358-.399-11.282.34-15.527a24.057 24.057 0 0 0 .072-7.917l-.018-.115 2.033 4.106 4.563-2.87c-1.744-5.079-1.778-11.155-12.617-8.9Z"/></svg>