<svg xmlns="http://www.w3.org/2000/svg" width="896.675" height="462.272" data-name="Layer 1"><path fill="#3f3d56" d="M895.485 462.169H1.19a1.19 1.19 0 0 1 0-2.382h894.294a1.19 1.19 0 0 1 0 2.382Z"/><circle cx="280.353" cy="50.98" r="6.467" fill="#f2f2f2"/><circle cx="254.58" cy="50.98" r="6.467" fill="#f2f2f2"/><circle cx="228.807" cy="50.98" r="6.467" fill="#f2f2f2"/><circle cx="203.033" cy="50.98" r="6.467" fill="#f2f2f2"/><circle cx="280.353" cy="77.98" r="6.467" fill="#f2f2f2"/><circle cx="254.58" cy="77.98" r="6.467" fill="#f2f2f2"/><circle cx="228.807" cy="77.98" r="6.467" fill="#f2f2f2"/><circle cx="203.033" cy="77.98" r="6.467" fill="#f2f2f2"/><circle cx="280.353" cy="104.98" r="6.467" fill="#f2f2f2"/><circle cx="254.58" cy="104.98" r="6.467" fill="#f2f2f2"/><circle cx="228.807" cy="104.98" r="6.467" fill="#f2f2f2"/><circle cx="203.033" cy="104.98" r="6.467" fill="#f2f2f2"/><circle cx="280.353" cy="131.98" r="6.467" fill="#f2f2f2"/><circle cx="254.58" cy="131.98" r="6.467" fill="#f2f2f2"/><circle cx="228.807" cy="131.98" r="6.467" fill="#f2f2f2"/><circle cx="203.033" cy="131.98" r="6.467" fill="#f2f2f2"/><circle cx="280.353" cy="158.98" r="6.467" fill="#f2f2f2"/><circle cx="254.58" cy="158.98" r="6.467" fill="#f2f2f2"/><circle cx="228.807" cy="158.98" r="6.467" fill="#f2f2f2"/><circle cx="203.033" cy="158.98" r="6.467" fill="#f2f2f2"/><circle cx="280.353" cy="185.98" r="6.467" fill="#f2f2f2"/><circle cx="254.58" cy="185.98" r="6.467" fill="#f2f2f2"/><circle cx="228.807" cy="185.98" r="6.467" fill="#f2f2f2"/><circle cx="203.033" cy="185.98" r="6.467" fill="#f2f2f2"/><path fill="#ccc" d="M223.528 362.4v2a12.51 12.51 0 0 0 12.5 12.5h90a12.505 12.505 0 0 0 12.5-12.5v-2a12.41 12.41 0 0 0-2.9-8 12.86 12.86 0 0 0-2.11-2s-49.48-1.12-49.48-2.5h-48.01a12.517 12.517 0 0 0-12.5 12.5Z"/><path fill="#ccc" d="M275.252 376.403h13v84h-13z"/><path fill="#ccc" d="M325.252 459.947c0 1.404-19.7.543-44 .543s-44 .861-44-.543 19.7-12.544 44-12.544 44 11.139 44 12.544Z"/><path fill="#a0616a" d="M307.379 360.703a10.743 10.743 0 0 0-3.807-16.026l-27.553-93.885-20.981 10.275 33.68 89.055a10.8 10.8 0 0 0 18.66 10.582Z"/><path fill="#d64045" d="m282.26 266.47-23.482 6.357a4.817 4.817 0 0 1-6.042-4.085l-2.838-24.088a13.377 13.377 0 0 1 25.845-6.915l9.674 22.156a4.817 4.817 0 0 1-3.156 6.575Z"/><path fill="#a0616a" d="m313.516 450.101 12.26-.001 5.833-31.796h-18.095l.002 31.797z"/><path fill="#2f2e41" d="M310.389 446.098H334.533a15.386 15.386 0 0 1 15.387 15.385v.5l-39.53.002ZM327.746 433.05q-.214 0-.43-.02l-16.966-1.236a4.5 4.5 0 0 1-3.81-6.029l22.707-51.015a3.498 3.498 0 0 0-.196-2.798 3.45 3.45 0 0 0-2.212-1.76c-10.677-2.791-38.072-10.223-61.786-18.918-10.16-3.726-16.559-9.11-19.019-16.002-3.243-9.087 1.555-17.374 1.76-17.722l.162-.272 22.314 2.028 24.191 2.058 53.014 28.427a20.086 20.086 0 0 1 8.818 25.785l-24.44 54.807a4.497 4.497 0 0 1-4.107 2.667Z"/><circle cx="274.15" cy="193.816" r="24.561" fill="#a0616a"/><path fill="#a0616a" d="m306.516 449.101 12.26-.001 5.833-31.796h-18.095l.002 31.797z"/><path fill="#2f2e41" d="M303.389 445.098H327.533a15.386 15.386 0 0 1 15.387 15.385v.5l-39.53.002ZM320.746 436.05q-.214 0-.43-.02l-16.966-1.236a4.5 4.5 0 0 1-3.81-6.029l22.707-51.015a3.498 3.498 0 0 0-.196-2.798 3.45 3.45 0 0 0-2.212-1.76c-10.677-2.791-38.072-10.223-61.786-18.918-10.16-3.726-16.559-9.11-19.019-16.002-3.243-9.087 1.555-17.374 1.76-17.722l.162-.272 22.314 2.028 24.191 2.058 53.014 28.427a20.086 20.086 0 0 1 8.818 25.785l-24.44 54.807a4.497 4.497 0 0 1-4.107 2.667Z"/><path fill="#2f2e41" d="m281.725 232.304-26-9s-16.322 12.54-8.48 43.649a77.012 77.012 0 0 1-3.401 48.32 49.778 49.778 0 0 1-2.619 5.531s29 35 56 9l-10.5-50.5s16.5-33.5-5-47ZM277.2 219.212c-3.496-5.232-6.255-12.487-2.406-17.466 3.8-4.914 11.292-4.19 17.11-6.364 8.105-3.029 12.805-12.55 11.339-21.076s-8.31-15.594-16.464-18.486-17.349-1.952-25.333 1.378c-9.83 4.1-18.261 12.03-21.797 22.077s-1.646 22.108 5.69 29.83c7.863 8.278 20.205 10.484 31.622 10.35"/><path fill="#2f2e41" d="M254.353 174.58c-4.405 3.586-11.125 1.993-15.854-1.154s-8.565-7.628-13.68-10.096c-9.02-4.35-19.925-1.458-28.702 3.36s-16.56 11.475-25.832 15.256-21.104 3.968-28.125-3.171a25.732 25.732 0 0 0 37.71 30.371c10.16-6.188 15.772-19.163 27.166-22.58 6.306-1.89 13.077-.367 19.45 1.282s13.017 3.43 19.449 2.027 12.447-7.183 11.629-13.715Z"/><path fill="#d64045" d="M334.307 406.007a167.506 167.506 0 0 1 0-50.976 4.303 4.303 0 0 1 4.237-3.605h39.872a4.247 4.247 0 0 1 3.355 1.626 4.32 4.32 0 0 1 .808 3.704 102.328 102.328 0 0 0 0 47.525 4.318 4.318 0 0 1-.808 3.705 4.247 4.247 0 0 1-3.355 1.626h-39.872a4.303 4.303 0 0 1-4.237-3.605Z"/><path fill="#fff" d="M366.146 376.102h-20.924a3.003 3.003 0 0 1-3-3v-1.172a3.003 3.003 0 0 1 3-3h20.924a3.003 3.003 0 0 1 3 3v1.172a3.003 3.003 0 0 1-3 3ZM366.146 388.447h-20.924a3.003 3.003 0 0 1-3-3v-1.173a3.003 3.003 0 0 1 3-3h20.924a3.003 3.003 0 0 1 3 3v1.173a3.003 3.003 0 0 1-3 3Z"/><path fill="#a0616a" d="M344.792 356.204a10.743 10.743 0 0 0-7.69-14.567l-50.136-84.024-17.748 15.192 54.862 77.816a10.8 10.8 0 0 0 20.712 5.583Z"/><path fill="#2f2e41" d="m296.927 271.235-21.15 12.022a4.817 4.817 0 0 1-6.871-2.446l-8.766-22.615a13.377 13.377 0 0 1 23.298-13.153l14.903 19.036a4.817 4.817 0 0 1-1.414 7.156Z"/><path fill="#3f3d56" d="M521.967 300.75h-406a6.5 6.5 0 1 0 0 13h11.5v141.5a6.5 6.5 0 0 0 13 0V326.24l72.871 132.077a6.5 6.5 0 0 0 11.259-6.5L148.42 313.75h348.046v.084l-76.129 137.983a6.5 6.5 0 1 0 11.258 6.5l64.871-117.578v114.51a6.5 6.5 0 0 0 13 0V317.178l1.891-3.427h10.61a6.5 6.5 0 0 0 0-13Z"/><rect width="86" height="7" x="271.467" y="296.75" fill="#ccc" rx="3.5"/><path fill="#ccc" d="M406.967 303.75h-89a6.507 6.507 0 0 1-6.5-6.5v-49a6.507 6.507 0 0 1 6.5-6.5h89a6.507 6.507 0 0 1 6.5 6.5v49a6.507 6.507 0 0 1-6.5 6.5Z"/><circle cx="362.467" cy="272.75" r="6" fill="#fff"/><path fill="#e6e6e6" d="M474.888 183.021V7.521A7.53 7.53 0 0 1 482.409 0h138.729a7.53 7.53 0 0 1 7.521 7.521v175.5a7.53 7.53 0 0 1-7.521 7.522H482.409a7.53 7.53 0 0 1-7.521-7.522Zm7.521-181.35a5.857 5.857 0 0 0-5.85 5.85v175.5a5.857 5.857 0 0 0 5.85 5.85h138.729a5.857 5.857 0 0 0 5.85-5.85V7.521a5.857 5.857 0 0 0-5.85-5.85Z"/><path fill="#d64045" d="M559.553 80.598V44.562a3.765 3.765 0 0 1 3.76-3.76h30.538a3.765 3.765 0 0 1 3.76 3.76v36.036a3.765 3.765 0 0 1-3.76 3.76h-30.537a3.765 3.765 0 0 1-3.76-3.76Z"/><path fill="#ccc" d="M500.217 97.312V61.276a3.765 3.765 0 0 1 3.761-3.76h30.537a3.765 3.765 0 0 1 3.76 3.76v36.036a3.765 3.765 0 0 1-3.76 3.76h-30.537a3.765 3.765 0 0 1-3.76-3.76Z"/><path fill="#ff6584" d="M547.853 148.29v-36.035a3.765 3.765 0 0 1 3.76-3.76h30.538a3.765 3.765 0 0 1 3.76 3.76v36.036a3.765 3.765 0 0 1-3.76 3.76h-30.537a3.765 3.765 0 0 1-3.76-3.76Z"/><circle cx="780.741" cy="11.82" r="6.467" fill="#f2f2f2"/><circle cx="780.741" cy="37.594" r="6.467" fill="#f2f2f2"/><circle cx="780.741" cy="63.367" r="6.467" fill="#f2f2f2"/><circle cx="780.741" cy="89.14" r="6.467" fill="#f2f2f2"/><circle cx="753.741" cy="11.82" r="6.467" fill="#f2f2f2"/><circle cx="753.741" cy="37.594" r="6.467" fill="#f2f2f2"/><circle cx="753.741" cy="63.367" r="6.467" fill="#f2f2f2"/><circle cx="753.741" cy="89.14" r="6.467" fill="#f2f2f2"/><circle cx="726.741" cy="11.82" r="6.467" fill="#f2f2f2"/><circle cx="726.741" cy="37.594" r="6.467" fill="#f2f2f2"/><circle cx="726.741" cy="63.367" r="6.467" fill="#f2f2f2"/><circle cx="726.741" cy="89.14" r="6.467" fill="#f2f2f2"/><circle cx="699.741" cy="11.82" r="6.467" fill="#f2f2f2"/><circle cx="699.741" cy="37.594" r="6.467" fill="#f2f2f2"/><circle cx="699.741" cy="63.367" r="6.467" fill="#f2f2f2"/><circle cx="699.741" cy="89.14" r="6.467" fill="#f2f2f2"/><circle cx="672.741" cy="11.82" r="6.467" fill="#f2f2f2"/><circle cx="672.741" cy="37.594" r="6.467" fill="#f2f2f2"/><circle cx="672.741" cy="63.367" r="6.467" fill="#f2f2f2"/><circle cx="672.741" cy="89.14" r="6.467" fill="#f2f2f2"/><circle cx="645.741" cy="11.82" r="6.467" fill="#f2f2f2"/><circle cx="645.741" cy="37.594" r="6.467" fill="#f2f2f2"/><circle cx="645.741" cy="63.367" r="6.467" fill="#f2f2f2"/><circle cx="645.741" cy="89.14" r="6.467" fill="#f2f2f2"/><path fill="#ffb8b8" d="M671.795 241.252a11.003 11.003 0 0 1 7.767-14.463 10.59 10.59 0 0 1 1.452-.237l24.302-42.598-6.136-10.543 15.275-11.785 11.687 16.232a11.149 11.149 0 0 1-.26 13.309l-33.365 42.714a10.507 10.507 0 0 1 .31 1.035 11.003 11.003 0 0 1-9.36 13.49 10.706 10.706 0 0 1-1.346.084 11.036 11.036 0 0 1-10.326-7.238ZM624.38 450.888l-12.26-.001-5.832-47.288 18.094.001-.002 47.288z"/><path fill="#2f2e41" d="M603.363 447.384h23.644v14.887h-38.53a14.887 14.887 0 0 1 14.886-14.887Z"/><path fill="#ffb8b8" d="m725.38 450.888-12.26-.001-5.832-47.288 18.094.001-.002 47.288z"/><path fill="#2f2e41" d="M704.363 447.384h23.644v14.887h-38.53a14.887 14.887 0 0 1 14.886-14.887Z"/><path fill="#d64045" d="m717.855 163.93-27.524 10.458-6.72-18.666a11.168 11.168 0 0 1 5.002-13.5 11.168 11.168 0 0 1 14.262 2.785Z"/><path fill="#2f2e41" d="m625.438 412.588-23.084-5.265a4.986 4.986 0 0 1-3.812-5.619c9.263-58.71 18.174-93.09 41.14-136.752.32-.814 3.907-17.338 6.247-28.286a4.972 4.972 0 0 1 4.214-5.023l43.044-6.625a5.57 5.57 0 0 1 2.022-.304l.43.081-.005.424c-.006.437-.441.504-.605.53l-.572.087a6.685 6.685 0 0 1 1.775 1.207c18.86 22.684 28.667 97.04 41.123 179.185a4.484 4.484 0 0 1-1.304 3.647 4.933 4.933 0 0 1-3.537 1.6l-27.502.671a4.982 4.982 0 0 1-5.035-4.218l-18.524-107.05a3.974 3.974 0 0 0-7.495-1.155c-14.944 30.435-28.88 56.755-42.606 109.266a4.953 4.953 0 0 1-4.793 3.726 5.03 5.03 0 0 1-1.12-.127Z"/><path fill="#d64045" d="M647.846 237.89a4.999 4.999 0 0 1-2.084-3.55c-3.525-32.91-1.07-58.664 7.506-78.735a24.992 24.992 0 0 1 16.567-14.18l22.25-1.122.115.055a26.005 26.005 0 0 1 14.219 27.589c-7.156 18.863-13.149 38.503-8.579 54.346a5.122 5.122 0 0 1-.484 3.983 4.884 4.884 0 0 1-3.115 2.31l-42.379 10.08a4.964 4.964 0 0 1-4.016-.777Z"/><path fill="#ffb8b8" d="m638.268 190.662-42.674-33.666a10.516 10.516 0 0 1-1.036.305 11.027 11.027 0 0 1-8.818-1.691 10.913 10.913 0 0 1-4.627-7.734 11.023 11.023 0 0 1 7.21-11.638 11.004 11.004 0 0 1 14.425 7.838 10.573 10.573 0 0 1 .23 1.452l42.48 24.507 10.573-6.086 11.71 15.332-16.413 11.699a10.942 10.942 0 0 1-13.06-.318Z"/><path fill="#d64045" d="M672.949 184.055 648.6 167.498l11.443-16.207a11.168 11.168 0 0 1 13.929-3.64 11.168 11.168 0 0 1 5.894 13.283Z"/><circle cx="684.659" cy="107.431" r="24.561" fill="#ffb8b8"/><path fill="#2f2e41" d="M675.654 103.773c-6.313 4.32-14.601 8.762-21.049 4.161-4.233-3.021-5.567-8.615-3.85-13.525 3.087-8.828 11.57-12.715 19.68-15.694 10.545-3.874 22.026-6.955 32.911-4.181s20.506 13.313 18.54 24.373c-1.58 8.894-9.97 16.295-8.778 25.25 1.199 9.012 11.334 13.755 20.281 15.366s18.96 2.128 25.391 8.555c8.203 8.2 6.155 22.854-1.564 31.51s-19.367 12.58-30.654 15.247c-14.954 3.535-31.129 5.392-45.332-.473s-25.256-21.655-21.141-36.46c1.738-6.254 5.832-11.54 9.788-16.685s7.963-10.526 9.473-16.839c1.257-5.26.327-11.368-3.162-15.314a4.437 4.437 0 0 1-.594-5.187Z"/></svg>